<svg width="20" height="20" viewBox="0 0 20 20" fill="none" xmlns="http://www.w3.org/2000/svg">
<path d="M10 20C15.5228 20 20 15.5228 20 10C20 4.47715 15.5228 0 10 0C4.47715 0 0 4.47715 0 10C0 15.5228 4.47715 20 10 20Z" fill="white"/>
<path d="M13.534 6.42015L8.22793 11.4288L6.8001 9.86188C6.17053 9.36014 5.18097 9.94449 5.63053 10.6967L7.32793 13.4323C7.59749 13.7662 8.22793 14.1001 8.85662 13.4323C9.12619 13.0984 14.2531 7.17145 14.2531 7.17145C14.8836 6.50363 14.074 5.91928 13.534 6.42015Z" fill="#3B168A"/>
</svg>
