<svg xmlns="http://www.w3.org/2000/svg" xmlns:xlink="http://www.w3.org/1999/xlink" viewBox="0 0 341.64 89.59"><defs><style>.cls-1{fill:#2eb9a0;}.cls-2{fill:none;}.cls-3{fill:url(#무제_그라디언트_4);}.cls-4{fill:url(#무제_그라디언트_4-3);}.cls-5{fill:url(#무제_그라디언트_4-5);}.cls-6{fill:url(#무제_그라디언트_4-6);}.cls-7{fill:url(#무제_그라디언트_4-8);}.cls-8{fill:url(#무제_그라디언트_4-9);}.cls-9{fill:url(#무제_그라디언트_4-11);}.cls-10{fill:url(#무제_그라디언트_4-12);}.cls-11{fill:url(#무제_그라디언트_4-14);}.cls-12{fill:url(#무제_그라디언트_4-15);}.cls-13{fill:url(#무제_그라디언트_4-17);}.cls-14{fill:url(#무제_그라디언트_4-18);}.cls-15{fill:url(#무제_그라디언트_4-20);}.cls-16{fill:url(#무제_그라디언트_4-21);}.cls-17{fill:url(#무제_그라디언트_4-24);}.cls-18{fill:url(#무제_그라디언트_4-25);}.cls-19{fill:url(#무제_그라디언트_4-27);}.cls-20{fill:url(#무제_그라디언트_4-28);}.cls-21{fill:url(#무제_그라디언트_4-30);}.cls-22{fill:url(#무제_그라디언트_4-31);}.cls-23{fill:url(#무제_그라디언트_4-34);}.cls-24{fill:url(#무제_그라디언트_4-35);}.cls-25{fill:url(#무제_그라디언트_4-38);}.cls-26{fill:url(#무제_그라디언트_4-39);}.cls-27{fill:url(#무제_그라디언트_4-42);}.cls-28{fill:url(#무제_그라디언트_4-43);}.cls-29{fill:url(#무제_그라디언트_4-46);}.cls-30{fill:url(#무제_그라디언트_4-47);}.cls-31{fill:url(#무제_그라디언트_4-50);}.cls-32{fill:url(#무제_그라디언트_4-51);}.cls-33{fill:url(#무제_그라디언트_4-54);}.cls-34{fill:url(#무제_그라디언트_4-55);}.cls-35{fill:url(#무제_그라디언트_4-58);}.cls-36{fill:url(#무제_그라디언트_4-59);}.cls-37{fill:#fff;}.cls-38{fill:url(#무제_그라디언트_4-62);}.cls-39{fill:url(#무제_그라디언트_4-63);}.cls-40{fill:url(#무제_그라디언트_4-65);}.cls-41{fill:url(#무제_그라디언트_4-67);}.cls-42{fill:url(#무제_그라디언트_4-68);}.cls-43{fill:url(#무제_그라디언트_4-71);}.cls-44{fill:url(#무제_그라디언트_4-72);}.cls-45{fill:url(#무제_그라디언트_4-75);}.cls-46{fill:url(#무제_그라디언트_4-76);}.cls-47{fill:url(#무제_그라디언트_4-79);}.cls-48{fill:url(#무제_그라디언트_4-80);}.cls-49{fill:url(#무제_그라디언트_4-83);}.cls-50{fill:url(#무제_그라디언트_4-84);}.cls-51{fill:url(#무제_그라디언트_4-87);}.cls-52{fill:url(#무제_그라디언트_4-88);}.cls-53{fill:url(#무제_그라디언트_4-91);}.cls-54{fill:url(#무제_그라디언트_4-92);}.cls-55{fill:url(#무제_그라디언트_4-95);}.cls-56{fill:url(#무제_그라디언트_4-96);}.cls-57{fill:url(#무제_그라디언트_4-99);}.cls-58{fill:url(#무제_그라디언트_4-100);}.cls-59{fill:url(#무제_그라디언트_4-103);}.cls-60{fill:url(#무제_그라디언트_4-104);}.cls-61{fill:url(#무제_그라디언트_4-107);}.cls-62{fill:url(#무제_그라디언트_4-108);}.cls-63{fill:url(#무제_그라디언트_4-111);}.cls-64{fill:url(#무제_그라디언트_4-112);}.cls-65{fill:url(#무제_그라디언트_4-115);}.cls-66{fill:url(#무제_그라디언트_4-116);}.cls-67{fill:url(#무제_그라디언트_4-119);}.cls-68{fill:url(#무제_그라디언트_4-120);}.cls-69{fill:url(#무제_그라디언트_4-123);}.cls-70{fill:url(#무제_그라디언트_4-124);}.cls-71{fill:url(#무제_그라디언트_4-127);}.cls-72{fill:url(#무제_그라디언트_4-128);}.cls-73{fill:url(#무제_그라디언트_4-131);}.cls-74{fill:url(#무제_그라디언트_4-132);}.cls-75{fill:url(#무제_그라디언트_4-135);}.cls-76{fill:url(#무제_그라디언트_4-136);}.cls-77{fill:url(#무제_그라디언트_4-139);}.cls-78{fill:url(#무제_그라디언트_4-140);}.cls-79{fill:url(#무제_그라디언트_4-143);}.cls-80{fill:url(#무제_그라디언트_4-144);}.cls-81{fill:url(#무제_그라디언트_4-147);}.cls-82{fill:url(#무제_그라디언트_4-148);}.cls-83{fill:url(#무제_그라디언트_4-149);}.cls-84{fill:url(#무제_그라디언트_4-152);}.cls-85{fill:url(#무제_그라디언트_4-153);}.cls-86{fill:url(#무제_그라디언트_4-154);}.cls-87{fill:url(#무제_그라디언트_4-157);}.cls-88{fill:url(#무제_그라디언트_4-158);}.cls-89{fill:url(#무제_그라디언트_4-161);}.cls-90{fill:url(#무제_그라디언트_4-162);}.cls-91{fill:url(#무제_그라디언트_4-165);}.cls-92{fill:url(#무제_그라디언트_4-166);}.cls-93{fill:url(#무제_그라디언트_4-169);}.cls-94{fill:url(#무제_그라디언트_4-170);}.cls-95{fill:url(#무제_그라디언트_4-173);}.cls-96{fill:url(#무제_그라디언트_4-174);}.cls-97{fill:url(#무제_그라디언트_4-177);}.cls-98{fill:url(#무제_그라디언트_4-178);}.cls-99{fill:url(#무제_그라디언트_4-180);}.cls-100{fill:url(#무제_그라디언트_4-181);}.cls-101{fill:url(#무제_그라디언트_4-184);}.cls-102{fill:url(#무제_그라디언트_4-185);}.cls-103{fill:url(#무제_그라디언트_4-187);}.cls-104{fill:url(#무제_그라디언트_4-188);}.cls-105{fill:url(#무제_그라디언트_4-189);}.cls-106{fill:url(#무제_그라디언트_4-190);}.cls-107{fill:url(#무제_그라디언트_4-191);}.cls-108{fill:url(#무제_그라디언트_4-192);}.cls-109{fill:url(#무제_그라디언트_4-195);}.cls-110{fill:url(#무제_그라디언트_4-196);}.cls-111{fill:url(#무제_그라디언트_4-199);}.cls-112{fill:url(#무제_그라디언트_4-200);}.cls-113{fill:url(#무제_그라디언트_4-203);}.cls-114{fill:url(#무제_그라디언트_4-204);}.cls-115{fill:url(#무제_그라디언트_4-207);}.cls-116{fill:url(#무제_그라디언트_4-208);}.cls-117{fill:url(#무제_그라디언트_4-211);}.cls-118{fill:url(#무제_그라디언트_4-212);}.cls-119{fill:url(#무제_그라디언트_4-215);}.cls-120{fill:url(#무제_그라디언트_4-216);}.cls-121{fill:url(#무제_그라디언트_4-219);}.cls-122{fill:url(#무제_그라디언트_4-220);}.cls-123{fill:url(#무제_그라디언트_4-223);}.cls-124{fill:url(#무제_그라디언트_4-224);}.cls-125{fill:url(#무제_그라디언트_4-227);}.cls-126{fill:url(#무제_그라디언트_4-228);}</style><linearGradient id="무제_그라디언트_4" x1="-439.61" y1="-218.95" x2="-382.61" y2="-218.95" gradientTransform="matrix(-0.64, -0.77, -0.77, 0.64, -344.67, -166.89)" gradientUnits="userSpaceOnUse"><stop offset="0" stop-color="#006a5e"/><stop offset="1" stop-color="#2eb9a0"/></linearGradient><linearGradient id="무제_그라디언트_4-3" x1="-2344.78" y1="55.82" x2="-2251.91" y2="55.82" gradientTransform="matrix(-1, 0, 0, 1, -2251.91, 0)" xlink:href="#무제_그라디언트_4"/><linearGradient id="무제_그라디언트_4-5" x1="-439.6" y1="-164.33" x2="-382.61" y2="-164.33" xlink:href="#무제_그라디언트_4"/><linearGradient id="무제_그라디언트_4-6" x1="-2344.79" y1="27.22" x2="-2251.91" y2="27.22" gradientTransform="matrix(-1, 0, 0, 1, -2251.91, 0)" xlink:href="#무제_그라디언트_4"/><linearGradient id="무제_그라디언트_4-8" x1="-439.61" y1="-183.88" x2="-382.61" y2="-183.88" xlink:href="#무제_그라디언트_4"/><linearGradient id="무제_그라디언트_4-9" x1="-2344.79" y1="13.71" x2="-2251.91" y2="13.71" gradientTransform="matrix(-1, 0, 0, 1, -2251.91, 0)" xlink:href="#무제_그라디언트_4"/><linearGradient id="무제_그라디언트_4-11" x1="-439.58" y1="-130.79" x2="-382.58" y2="-130.79" xlink:href="#무제_그라디언트_4"/><linearGradient id="무제_그라디언트_4-12" x1="-2344.79" y1="65.42" x2="-2251.91" y2="65.42" gradientTransform="matrix(-1, 0, 0, 1, -2251.91, 0)" xlink:href="#무제_그라디언트_4"/><linearGradient id="무제_그라디언트_4-14" x1="-439.61" y1="-192.38" x2="-382.6" y2="-192.38" xlink:href="#무제_그라디언트_4"/><linearGradient id="무제_그라디언트_4-15" x1="-2344.79" y1="48.35" x2="-2251.91" y2="48.35" gradientTransform="matrix(-1, 0, 0, 1, -2251.91, 0)" xlink:href="#무제_그라디언트_4"/><linearGradient id="무제_그라디언트_4-17" x1="-439.61" y1="-205.91" x2="-382.61" y2="-205.91" xlink:href="#무제_그라디언트_4"/><linearGradient id="무제_그라디언트_4-18" x1="-2344.78" y1="22.17" x2="-2251.92" y2="22.17" gradientTransform="matrix(-1, 0, 0, 1, -2251.91, 0)" xlink:href="#무제_그라디언트_4"/><linearGradient id="무제_그라디언트_4-20" x1="-439.61" y1="-152.82" x2="-382.61" y2="-152.82" xlink:href="#무제_그라디언트_4"/><linearGradient id="무제_그라디언트_4-21" x1="-2344.79" y1="73.88" x2="-2251.91" y2="73.88" gradientTransform="matrix(-1, 0, 0, 1, -2251.91, 0)" xlink:href="#무제_그라디언트_4"/><linearGradient id="무제_그라디언트_4-24" x1="-439.61" y1="-172.36" x2="-382.61" y2="-172.36" xlink:href="#무제_그라디언트_4"/><linearGradient id="무제_그라디언트_4-25" x1="-2344.79" y1="60.37" x2="-2251.91" y2="60.37" gradientTransform="matrix(-1, 0, 0, 1, -2251.91, 0)" xlink:href="#무제_그라디언트_4"/><linearGradient id="무제_그라디언트_4-27" x1="-439.61" y1="-144.32" x2="-382.61" y2="-144.32" xlink:href="#무제_그라디언트_4"/><linearGradient id="무제_그라디언트_4-28" x1="-2344.79" y1="39.23" x2="-2251.91" y2="39.23" gradientTransform="matrix(-1, 0, 0, 1, -2251.91, 0)" xlink:href="#무제_그라디언트_4"/><linearGradient id="무제_그라디언트_4-30" x1="-439.61" y1="-192.29" x2="-382.61" y2="-192.29" xlink:href="#무제_그라디언트_4"/><linearGradient id="무제_그라디언트_4-31" x1="-2333.1" y1="39.89" x2="-2263.6" y2="39.89" gradientTransform="matrix(-1, 0, 0, 1, -2251.91, 0)" xlink:href="#무제_그라디언트_4"/><linearGradient id="무제_그라디언트_4-34" x1="-439.61" y1="-150.3" x2="-382.61" y2="-150.3" xlink:href="#무제_그라디언트_4"/><linearGradient id="무제_그라디언트_4-35" x1="-2333.1" y1="67.03" x2="-2263.6" y2="67.03" gradientTransform="matrix(-1, 0, 0, 1, -2251.91, 0)" xlink:href="#무제_그라디언트_4"/><linearGradient id="무제_그라디언트_4-38" x1="-439.61" y1="-201.03" x2="-382.61" y2="-201.03" xlink:href="#무제_그라디언트_4"/><linearGradient id="무제_그라디언트_4-39" x1="-2333.1" y1="23.47" x2="-2263.6" y2="23.47" gradientTransform="matrix(-1, 0, 0, 1, -2251.91, 0)" xlink:href="#무제_그라디언트_4"/><linearGradient id="무제_그라디언트_4-42" x1="-439.61" y1="-144.41" x2="-382.61" y2="-144.41" xlink:href="#무제_그라디언트_4"/><linearGradient id="무제_그라디언트_4-43" x1="-2333.1" y1="47.69" x2="-2263.6" y2="47.69" gradientTransform="matrix(-1, 0, 0, 1, -2251.91, 0)" xlink:href="#무제_그라디언트_4"/><linearGradient id="무제_그라디언트_4-46" x1="-439.61" y1="-135.67" x2="-382.61" y2="-135.67" xlink:href="#무제_그라디언트_4"/><linearGradient id="무제_그라디언트_4-47" x1="-2333.1" y1="64.11" x2="-2263.6" y2="64.11" gradientTransform="matrix(-1, 0, 0, 1, -2251.91, 0)" xlink:href="#무제_그라디언트_4"/><linearGradient id="무제_그라디언트_4-50" x1="-439.61" y1="-186.39" x2="-382.61" y2="-186.39" xlink:href="#무제_그라디언트_4"/><linearGradient id="무제_그라디언트_4-51" x1="-2333.1" y1="20.55" x2="-2263.6" y2="20.55" gradientTransform="matrix(-1, 0, 0, 1, -2251.91, 0)" xlink:href="#무제_그라디언트_4"/><linearGradient id="무제_그라디언트_4-54" x1="-439.61" y1="-171.35" x2="-382.61" y2="-171.35" xlink:href="#무제_그라디언트_4"/><linearGradient id="무제_그라디언트_4-55" x1="-2333.1" y1="53.67" x2="-2263.6" y2="53.67" gradientTransform="matrix(-1, 0, 0, 1, -2251.91, 0)" xlink:href="#무제_그라디언트_4"/><linearGradient id="무제_그라디언트_4-58" x1="-439.62" y1="-165.35" x2="-382.61" y2="-165.35" xlink:href="#무제_그라디언트_4"/><linearGradient id="무제_그라디언트_4-59" x1="-2333.1" y1="33.92" x2="-2263.6" y2="33.92" gradientTransform="matrix(-1, 0, 0, 1, -2251.91, 0)" xlink:href="#무제_그라디언트_4"/><linearGradient id="무제_그라디언트_4-62" x1="-2333.1" y1="61.16" x2="-2263.6" y2="61.16" gradientTransform="matrix(-1, 0, 0, 1, -2251.91, 0)" xlink:href="#무제_그라디언트_4"/><linearGradient id="무제_그라디언트_4-63" x1="1049.36" y1="1592.43" x2="1106.36" y2="1592.43" gradientTransform="matrix(0.64, -0.77, 0.77, 0.64, -1907.25, -166.89)" xlink:href="#무제_그라디언트_4"/><linearGradient id="무제_그라디언트_4-65" x1="0" y1="55.82" x2="92.87" y2="55.82" gradientTransform="matrix(1, 0, 0, 1, 0, 0)" xlink:href="#무제_그라디언트_4"/><linearGradient id="무제_그라디언트_4-67" x1="1049.36" y1="1619" x2="1106.36" y2="1619" gradientTransform="matrix(0.64, -0.77, 0.77, 0.64, -1907.25, -166.89)" xlink:href="#무제_그라디언트_4"/><linearGradient id="무제_그라디언트_4-68" x1="0" y1="48.35" x2="92.87" y2="48.35" gradientTransform="matrix(1, 0, 0, 1, 0, 0)" xlink:href="#무제_그라디언트_4"/><linearGradient id="무제_그라디언트_4-71" x1="1049.36" y1="1639.02" x2="1106.36" y2="1639.02" gradientTransform="matrix(0.64, -0.77, 0.77, 0.64, -1907.25, -166.89)" xlink:href="#무제_그라디언트_4"/><linearGradient id="무제_그라디언트_4-72" x1="0" y1="60.37" x2="92.87" y2="60.37" gradientTransform="matrix(1, 0, 0, 1, 0, 0)" xlink:href="#무제_그라디언트_4"/><linearGradient id="무제_그라디언트_4-75" x1="1049.35" y1="1667.06" x2="1106.36" y2="1667.06" gradientTransform="matrix(0.64, -0.77, 0.77, 0.64, -1907.25, -166.89)" xlink:href="#무제_그라디언트_4"/><linearGradient id="무제_그라디언트_4-76" x1="0" y1="39.23" x2="92.87" y2="39.23" gradientTransform="matrix(1, 0, 0, 1, 0, 0)" xlink:href="#무제_그라디언트_4"/><linearGradient id="무제_그라디언트_4-79" x1="1049.37" y1="1647.05" x2="1106.36" y2="1647.05" gradientTransform="matrix(0.64, -0.77, 0.77, 0.64, -1907.25, -166.89)" xlink:href="#무제_그라디언트_4"/><linearGradient id="무제_그라디언트_4-80" x1="0" y1="27.22" x2="92.87" y2="27.22" gradientTransform="matrix(1, 0, 0, 1, 0, 0)" xlink:href="#무제_그라디언트_4"/><linearGradient id="무제_그라디언트_4-83" x1="1049.36" y1="1605.47" x2="1106.36" y2="1605.47" gradientTransform="matrix(0.64, -0.77, 0.77, 0.64, -1907.25, -166.89)" xlink:href="#무제_그라디언트_4"/><linearGradient id="무제_그라디언트_4-84" x1="0.01" y1="22.17" x2="92.87" y2="22.17" gradientTransform="matrix(1, 0, 0, 1, 0, 0)" xlink:href="#무제_그라디언트_4"/><linearGradient id="무제_그라디언트_4-87" x1="1049.39" y1="1680.59" x2="1106.38" y2="1680.59" gradientTransform="matrix(0.64, -0.77, 0.77, 0.64, -1907.25, -166.89)" xlink:href="#무제_그라디언트_4"/><linearGradient id="무제_그라디언트_4-88" x1="0" y1="65.42" x2="92.87" y2="65.42" gradientTransform="matrix(1, 0, 0, 1, 0, 0)" xlink:href="#무제_그라디언트_4"/><linearGradient id="무제_그라디언트_4-91" x1="-439.61" y1="-198.22" x2="-382.61" y2="-198.22" xlink:href="#무제_그라디언트_4"/><linearGradient id="무제_그라디언트_4-92" x1="-2344.79" y1="43.89" x2="-2251.91" y2="43.89" gradientTransform="matrix(-1, 0, 0, 1, -2251.91, 0)" xlink:href="#무제_그라디언트_4"/><linearGradient id="무제_그라디언트_4-95" x1="1049.36" y1="1673.06" x2="1106.36" y2="1673.06" gradientTransform="matrix(0.64, -0.77, 0.77, 0.64, -1907.25, -166.89)" xlink:href="#무제_그라디언트_4"/><linearGradient id="무제_그라디언트_4-96" x1="0" y1="43.89" x2="92.87" y2="43.89" gradientTransform="matrix(1, 0, 0, 1, 0, 0)" xlink:href="#무제_그라디언트_4"/><linearGradient id="무제_그라디언트_4-99" x1="-439.6" y1="-189.59" x2="-382.61" y2="-189.59" xlink:href="#무제_그라디언트_4"/><linearGradient id="무제_그라디언트_4-100" x1="-2344.79" y1="10.25" x2="-2251.91" y2="10.25" gradientTransform="matrix(-1, 0, 0, 1, -2251.91, 0)" xlink:href="#무제_그라디언트_4"/><linearGradient id="무제_그라디언트_4-103" x1="1049.36" y1="1621.79" x2="1106.36" y2="1621.79" gradientTransform="matrix(0.64, -0.77, 0.77, 0.64, -1907.25, -166.89)" xlink:href="#무제_그라디언트_4"/><linearGradient id="무제_그라디언트_4-104" x1="0" y1="10.25" x2="92.87" y2="10.25" gradientTransform="matrix(1, 0, 0, 1, 0, 0)" xlink:href="#무제_그라디언트_4"/><linearGradient id="무제_그라디언트_4-107" x1="-439.61" y1="-147.11" x2="-382.61" y2="-147.11" xlink:href="#무제_그라디언트_4"/><linearGradient id="무제_그라디언트_4-108" x1="-2344.79" y1="77.33" x2="-2251.91" y2="77.33" gradientTransform="matrix(-1, 0, 0, 1, -2251.91, 0)" xlink:href="#무제_그라디언트_4"/><linearGradient id="무제_그라디언트_4-111" x1="1049.36" y1="1664.27" x2="1106.35" y2="1664.27" gradientTransform="matrix(0.64, -0.77, 0.77, 0.64, -1907.25, -166.89)" xlink:href="#무제_그라디언트_4"/><linearGradient id="무제_그라디언트_4-112" x1="0" y1="77.33" x2="92.87" y2="77.33" gradientTransform="matrix(1, 0, 0, 1, 0, 0)" xlink:href="#무제_그라디언트_4"/><linearGradient id="무제_그라디언트_4-115" x1="-439.61" y1="-197.3" x2="-382.61" y2="-197.3" xlink:href="#무제_그라디언트_4"/><linearGradient id="무제_그라디언트_4-116" x1="-2333.1" y1="34.89" x2="-2263.6" y2="34.89" gradientTransform="matrix(-1, 0, 0, 1, -2251.91, 0)" xlink:href="#무제_그라디언트_4"/><linearGradient id="무제_그라디언트_4-119" x1="1049.36" y1="1660.55" x2="1106.36" y2="1660.55" gradientTransform="matrix(0.64, -0.77, 0.77, 0.64, -1907.25, -166.89)" xlink:href="#무제_그라디언트_4"/><linearGradient id="무제_그라디언트_4-120" x1="0" y1="34.89" x2="92.87" y2="34.89" gradientTransform="matrix(1, 0, 0, 1, 0, 0)" xlink:href="#무제_그라디언트_4"/><linearGradient id="무제_그라디언트_4-123" x1="-439.61" y1="-191.95" x2="-382.61" y2="-191.95" xlink:href="#무제_그라디언트_4"/><linearGradient id="무제_그라디언트_4-124" x1="-2333.1" y1="17.44" x2="-2263.6" y2="17.44" gradientTransform="matrix(-1, 0, 0, 1, -2251.91, 0)" xlink:href="#무제_그라디언트_4"/><linearGradient id="무제_그라디언트_4-127" x1="1049.36" y1="1633.57" x2="1106.36" y2="1633.57" gradientTransform="matrix(0.64, -0.77, 0.77, 0.64, -1907.25, -166.89)" xlink:href="#무제_그라디언트_4"/><linearGradient id="무제_그라디언트_4-128" x1="0" y1="17.44" x2="92.87" y2="17.44" gradientTransform="matrix(1, 0, 0, 1, 0, 0)" xlink:href="#무제_그라디언트_4"/><linearGradient id="무제_그라디언트_4-131" x1="-439.61" y1="-144.75" x2="-382.61" y2="-144.75" xlink:href="#무제_그라디언트_4"/><linearGradient id="무제_그라디언트_4-132" x1="-2333.1" y1="70.15" x2="-2263.6" y2="70.15" gradientTransform="matrix(-1, 0, 0, 1, -2251.91, 0)" xlink:href="#무제_그라디언트_4"/><linearGradient id="무제_그라디언트_4-135" x1="1049.36" y1="1652.5" x2="1106.36" y2="1652.5" gradientTransform="matrix(0.64, -0.77, 0.77, 0.64, -1907.25, -166.89)" xlink:href="#무제_그라디언트_4"/><linearGradient id="무제_그라디언트_4-136" x1="0" y1="70.15" x2="92.87" y2="70.15" gradientTransform="matrix(1, 0, 0, 1, 0, 0)" xlink:href="#무제_그라디언트_4"/><linearGradient id="무제_그라디언트_4-139" x1="-439.61" y1="-139.4" x2="-382.61" y2="-139.4" xlink:href="#무제_그라디언트_4"/><linearGradient id="무제_그라디언트_4-140" x1="-2333.1" y1="52.69" x2="-2263.6" y2="52.69" gradientTransform="matrix(-1, 0, 0, 1, -2251.91, 0)" xlink:href="#무제_그라디언트_4"/><linearGradient id="무제_그라디언트_4-143" x1="1049.36" y1="1625.52" x2="1106.36" y2="1625.52" gradientTransform="matrix(0.64, -0.77, 0.77, 0.64, -1907.25, -166.89)" xlink:href="#무제_그라디언트_4"/><linearGradient id="무제_그라디언트_4-144" x1="0" y1="52.69" x2="92.87" y2="52.69" gradientTransform="matrix(1, 0, 0, 1, 0, 0)" xlink:href="#무제_그라디언트_4"/><linearGradient id="무제_그라디언트_4-147" x1="-2333.1" y1="56.55" x2="-2263.6" y2="56.55" gradientTransform="matrix(-1, 0, 0, 1, -2251.91, 0)" xlink:href="#무제_그라디언트_4"/><linearGradient id="무제_그라디언트_4-148" x1="1049.36" y1="1629.19" x2="1106.36" y2="1629.19" gradientTransform="matrix(0.64, -0.77, 0.77, 0.64, -1907.25, -166.89)" xlink:href="#무제_그라디언트_4"/><linearGradient id="무제_그라디언트_4-149" x1="0" y1="56.55" x2="92.87" y2="56.55" gradientTransform="matrix(1, 0, 0, 1, 0, 0)" xlink:href="#무제_그라디언트_4"/><linearGradient id="무제_그라디언트_4-152" x1="1049.35" y1="1646.03" x2="1106.36" y2="1646.03" gradientTransform="matrix(0.64, -0.77, 0.77, 0.64, -1907.25, -166.89)" xlink:href="#무제_그라디언트_4"/><linearGradient id="무제_그라디언트_4-153" x1="1049.36" y1="1610.35" x2="1106.36" y2="1610.35" gradientTransform="matrix(0.64, -0.77, 0.77, 0.64, -1907.25, -166.89)" xlink:href="#무제_그라디언트_4"/><linearGradient id="무제_그라디언트_4-154" x1="11.69" y1="23.47" x2="81.19" y2="23.47" gradientTransform="matrix(1, 0, 0, 1, 0, 0)" xlink:href="#무제_그라디언트_4"/><linearGradient id="무제_그라디언트_4-157" x1="1049.36" y1="1675.71" x2="1106.35" y2="1675.71" gradientTransform="matrix(0.64, -0.77, 0.77, 0.64, -1907.25, -166.89)" xlink:href="#무제_그라디언트_4"/><linearGradient id="무제_그라디언트_4-158" x1="11.69" y1="64.11" x2="81.19" y2="64.11" gradientTransform="matrix(1, 0, 0, 1, 0, 0)" xlink:href="#무제_그라디언트_4"/><linearGradient id="무제_그라디언트_4-161" x1="1049.36" y1="1619.09" x2="1106.36" y2="1619.09" gradientTransform="matrix(0.64, -0.77, 0.77, 0.64, -1907.25, -166.89)" xlink:href="#무제_그라디언트_4"/><linearGradient id="무제_그라디언트_4-162" x1="11.69" y1="39.89" x2="81.19" y2="39.89" gradientTransform="matrix(1, 0, 0, 1, 0, 0)" xlink:href="#무제_그라디언트_4"/><linearGradient id="무제_그라디언트_4-165" x1="1049.36" y1="1640.03" x2="1106.36" y2="1640.03" gradientTransform="matrix(0.64, -0.77, 0.77, 0.64, -1907.25, -166.89)" xlink:href="#무제_그라디언트_4"/><linearGradient id="무제_그라디언트_4-166" x1="11.69" y1="53.67" x2="81.19" y2="53.67" gradientTransform="matrix(1, 0, 0, 1, 0, 0)" xlink:href="#무제_그라디언트_4"/><linearGradient id="무제_그라디언트_4-169" x1="-439.61" y1="-158.88" x2="-382.61" y2="-158.88" xlink:href="#무제_그라디언트_4"/><linearGradient id="무제_그라디언트_4-170" x1="-2344.79" y1="70.15" x2="-2251.91" y2="70.15" gradientTransform="matrix(-1, 0, 0, 1, -2251.91, 0)" xlink:href="#무제_그라디언트_4"/><linearGradient id="무제_그라디언트_4-173" x1="1049.36" y1="1666.63" x2="1106.35" y2="1666.63" gradientTransform="matrix(0.64, -0.77, 0.77, 0.64, -1907.25, -166.89)" xlink:href="#무제_그라디언트_4"/><linearGradient id="무제_그라디언트_4-174" x1="11.69" y1="70.15" x2="81.19" y2="70.15" gradientTransform="matrix(1, 0, 0, 1, 0, 0)" xlink:href="#무제_그라디언트_4"/><linearGradient id="무제_그라디언트_4-177" x1="-439.61" y1="-185.87" x2="-382.6" y2="-185.87" xlink:href="#무제_그라디언트_4"/><linearGradient id="무제_그라디언트_4-178" x1="-2344.79" y1="52.69" x2="-2251.91" y2="52.69" gradientTransform="matrix(-1, 0, 0, 1, -2251.91, 0)" xlink:href="#무제_그라디언트_4"/><linearGradient id="무제_그라디언트_4-180" x1="-439.61" y1="-177.82" x2="-382.61" y2="-177.82" xlink:href="#무제_그라디언트_4"/><linearGradient id="무제_그라디언트_4-181" x1="-2344.79" y1="17.44" x2="-2251.91" y2="17.44" gradientTransform="matrix(-1, 0, 0, 1, -2251.91, 0)" xlink:href="#무제_그라디언트_4"/><linearGradient id="무제_그라디언트_4-184" x1="1049.36" y1="1619.44" x2="1106.36" y2="1619.44" gradientTransform="matrix(0.64, -0.77, 0.77, 0.64, -1907.25, -166.89)" xlink:href="#무제_그라디언트_4"/><linearGradient id="무제_그라디언트_4-185" x1="11.69" y1="17.44" x2="81.19" y2="17.44" gradientTransform="matrix(1, 0, 0, 1, 0, 0)" xlink:href="#무제_그라디언트_4"/><linearGradient id="무제_그라디언트_4-187" x1="-42.17" y1="23.17" x2="159.68" y2="23.17" gradientTransform="matrix(1, 0, 0, 1, 0, 0)" xlink:href="#무제_그라디언트_4"/><linearGradient id="무제_그라디언트_4-188" x1="-8.55" y1="56.46" x2="204.9" y2="56.46" gradientTransform="matrix(1, 0, 0, 1, 0, 0)" xlink:href="#무제_그라디언트_4"/><linearGradient id="무제_그라디언트_4-189" x1="-51.53" y1="22.17" x2="277.4" y2="22.17" gradientTransform="matrix(1, 0, 0, 1, 0, 0)" xlink:href="#무제_그라디언트_4"/><linearGradient id="무제_그라디언트_4-190" x1="-97.98" y1="60.86" x2="230.99" y2="60.86" gradientTransform="matrix(1, 0, 0, 1, 0, 0)" xlink:href="#무제_그라디언트_4"/><linearGradient id="무제_그라디언트_4-191" x1="-439.61" y1="-150.83" x2="-382.61" y2="-150.83" xlink:href="#무제_그라디언트_4"/><linearGradient id="무제_그라디언트_4-192" x1="-2344.79" y1="34.89" x2="-2251.91" y2="34.89" gradientTransform="matrix(-1, 0, 0, 1, -2251.91, 0)" xlink:href="#무제_그라디언트_4"/><linearGradient id="무제_그라디언트_4-195" x1="1049.36" y1="1614.08" x2="1106.36" y2="1614.08" gradientTransform="matrix(0.64, -0.77, 0.77, 0.64, -1907.25, -166.89)" xlink:href="#무제_그라디언트_4"/><linearGradient id="무제_그라디언트_4-196" x1="11.69" y1="34.89" x2="81.19" y2="34.89" gradientTransform="matrix(1, 0, 0, 1, 0, 0)" xlink:href="#무제_그라디언트_4"/><linearGradient id="무제_그라디언트_4-199" x1="-439.61" y1="-186.9" x2="-382.61" y2="-186.9" xlink:href="#무제_그라디언트_4"/><linearGradient id="무제_그라디언트_4-200" x1="-2333.1" y1="43.79" x2="-2263.6" y2="43.79" gradientTransform="matrix(-1, 0, 0, 1, -2251.91, 0)" xlink:href="#무제_그라디언트_4"/><linearGradient id="무제_그라디언트_4-203" x1="-439.6" y1="-180.89" x2="-382.61" y2="-180.89" xlink:href="#무제_그라디언트_4"/><linearGradient id="무제_그라디언트_4-204" x1="-2333.1" y1="24.04" x2="-2263.6" y2="24.04" gradientTransform="matrix(-1, 0, 0, 1, -2251.91, 0)" xlink:href="#무제_그라디언트_4"/><linearGradient id="무제_그라디언트_4-207" x1="1049.36" y1="1630.49" x2="1106.36" y2="1630.49" gradientTransform="matrix(0.64, -0.77, 0.77, 0.64, -1907.25, -166.89)" xlink:href="#무제_그라디언트_4"/><linearGradient id="무제_그라디언트_4-208" x1="11.69" y1="24.04" x2="81.19" y2="24.04" gradientTransform="matrix(1, 0, 0, 1, 0, 0)" xlink:href="#무제_그라디언트_4"/><linearGradient id="무제_그라디언트_4-211" x1="-439.61" y1="-155.81" x2="-382.61" y2="-155.81" xlink:href="#무제_그라디언트_4"/><linearGradient id="무제_그라디언트_4-212" x1="-2333.1" y1="63.55" x2="-2263.6" y2="63.55" gradientTransform="matrix(-1, 0, 0, 1, -2251.91, 0)" xlink:href="#무제_그라디언트_4"/><linearGradient id="무제_그라디언트_4-215" x1="1049.36" y1="1655.58" x2="1106.36" y2="1655.58" gradientTransform="matrix(0.64, -0.77, 0.77, 0.64, -1907.25, -166.89)" xlink:href="#무제_그라디언트_4"/><linearGradient id="무제_그라디언트_4-216" x1="11.69" y1="63.55" x2="81.19" y2="63.55" gradientTransform="matrix(1, 0, 0, 1, 0, 0)" xlink:href="#무제_그라디언트_4"/><linearGradient id="무제_그라디언트_4-219" x1="-439.61" y1="-149.8" x2="-382.61" y2="-149.8" xlink:href="#무제_그라디언트_4"/><linearGradient id="무제_그라디언트_4-220" x1="-2333.1" y1="43.79" x2="-2263.6" y2="43.79" gradientTransform="matrix(-1, 0, 0, 1, -2251.91, 0)" xlink:href="#무제_그라디언트_4"/><linearGradient id="무제_그라디언트_4-223" x1="1049.36" y1="1624.48" x2="1106.36" y2="1624.48" gradientTransform="matrix(0.64, -0.77, 0.77, 0.64, -1907.25, -166.89)" xlink:href="#무제_그라디언트_4"/><linearGradient id="무제_그라디언트_4-224" x1="11.69" y1="43.79" x2="81.19" y2="43.79" gradientTransform="matrix(1, 0, 0, 1, 0, 0)" xlink:href="#무제_그라디언트_4"/><linearGradient id="무제_그라디언트_4-227" x1="11.69" y1="61.16" x2="81.19" y2="61.16" gradientTransform="matrix(1, 0, 0, 1, 0, 0)" xlink:href="#무제_그라디언트_4"/><linearGradient id="무제_그라디언트_4-228" x1="11.67" y1="56.55" x2="81.19" y2="56.55" gradientTransform="matrix(1, 0, 0, 1, 0, 0)" xlink:href="#무제_그라디언트_4"/></defs><g id="레이어_2" data-name="레이어 2"><g id="레이어_1-2" data-name="레이어 1"><path class="cls-1" d="M124.83,52.2a2.52,2.52,0,0,1-.78-1.87V2.65a2.47,2.47,0,0,1,.78-1.9A2.57,2.57,0,0,1,126.69,0H158.5a2.57,2.57,0,0,1,1.9.75,2.46,2.46,0,0,1,.75,1.83,2.39,2.39,0,0,1-.75,1.8,2.66,2.66,0,0,1-1.9.71H129.34V23.81h21.23a2.6,2.6,0,0,1,1.9.74,2.53,2.53,0,0,1,.74,1.84,2.44,2.44,0,0,1-.78,1.83,2.58,2.58,0,0,1-1.86.74H129.34V47.89H158.5a2.66,2.66,0,0,1,1.9.71,2.39,2.39,0,0,1,.75,1.8,2.49,2.49,0,0,1-.75,1.83,2.57,2.57,0,0,1-1.9.75H126.69A2.52,2.52,0,0,1,124.83,52.2Z"/><path class="cls-1" d="M206.05,18.45V34.39A19.07,19.07,0,0,1,203.58,44a18.07,18.07,0,0,1-6.79,6.82,19.8,19.8,0,0,1-19.19,0A17.93,17.93,0,0,1,170.81,44a19.07,19.07,0,0,1-2.47-9.63,19.28,19.28,0,0,1,2.41-9.6,17.89,17.89,0,0,1,15.9-9.26,17.56,17.56,0,0,1,8.07,1.87,16.67,16.67,0,0,1,6,5.12V2.65A2.57,2.57,0,0,1,203.41,0a2.45,2.45,0,0,1,1.86.75,2.6,2.6,0,0,1,.71,1.9V17.84A1.92,1.92,0,0,1,206.05,18.45ZM194.18,46.7a13.44,13.44,0,0,0,4.92-5.09,14.51,14.51,0,0,0,1.8-7.22,16.59,16.59,0,0,0-.07-1.7.67.67,0,0,1-.07-.33,13.61,13.61,0,0,0-4.44-8.69,13.16,13.16,0,0,0-9.13-3.39,13.77,13.77,0,0,0-7,1.83,13.15,13.15,0,0,0-4.95,5.06,14.51,14.51,0,0,0-1.79,7.22,14.51,14.51,0,0,0,1.79,7.22,13.37,13.37,0,0,0,4.95,5.09,13.51,13.51,0,0,0,7,1.87A13.3,13.3,0,0,0,194.18,46.7Z"/><path class="cls-1" d="M251.23,16.58a2.5,2.5,0,0,1,.74,1.87V50.33A2.55,2.55,0,0,1,249.33,53a2.47,2.47,0,0,1-1.87-.75,2.66,2.66,0,0,1-.71-1.9V48A15.7,15.7,0,0,1,241.32,52a16.73,16.73,0,0,1-6.92,1.42,18.25,18.25,0,0,1-8.65-2,14.67,14.67,0,0,1-6-5.94,18.86,18.86,0,0,1-2.17-9.32V18.45a2.56,2.56,0,0,1,2.58-2.58,2.57,2.57,0,0,1,1.9.75,2.48,2.48,0,0,1,.74,1.83V36.09q0,6,3.36,9.19A12.33,12.33,0,0,0,235,48.43a13.68,13.68,0,0,0,6-1.29,10.53,10.53,0,0,0,4.24-3.56,8.72,8.72,0,0,0,1.56-5V18.45a2.44,2.44,0,0,1,2.58-2.58A2.68,2.68,0,0,1,251.23,16.58Z"/><path class="cls-1" d="M265.23,7.73a3.64,3.64,0,0,1-1.05-2.64,3.45,3.45,0,0,1,1.09-2.65,3.7,3.7,0,0,1,2.64-1,3.66,3.66,0,0,1,2.58,1,3.47,3.47,0,0,1,1.08,2.65,3.59,3.59,0,0,1-1.08,2.64,3.6,3.6,0,0,1-2.65,1.09A3.46,3.46,0,0,1,265.23,7.73Zm.78,44.5a2.56,2.56,0,0,1-.74-1.9V18.52a2.55,2.55,0,0,1,2.64-2.65,2.47,2.47,0,0,1,1.87.75,2.66,2.66,0,0,1,.71,1.9V50.33a2.66,2.66,0,0,1-.71,1.9,2.47,2.47,0,0,1-1.87.75A2.57,2.57,0,0,1,266,52.23Z"/><path class="cls-1" d="M301.89,48.5a2.73,2.73,0,0,1,.68,1.9,2.4,2.4,0,0,1-.81,1.83,2.9,2.9,0,0,1-2,.75H298.3a12.09,12.09,0,0,1-10.89-6.41,13.89,13.89,0,0,1-1.59-6.69V21.77h-4.41a2.32,2.32,0,0,1-1.73-.64,2.16,2.16,0,0,1-.65-1.59,2.27,2.27,0,0,1,.65-1.67,2.32,2.32,0,0,1,1.73-.64h4.41V6.72a2.6,2.6,0,0,1,.71-1.9,2.45,2.45,0,0,1,1.86-.75A2.57,2.57,0,0,1,291,6.72V17.23h7.66a2.32,2.32,0,0,1,1.73.64,2.27,2.27,0,0,1,.65,1.67,2.16,2.16,0,0,1-.65,1.59,2.32,2.32,0,0,1-1.73.64H291V39.88a8,8,0,0,0,2,5.67,6.76,6.76,0,0,0,5.22,2.2h1.83A2.26,2.26,0,0,1,301.89,48.5Z"/><path class="cls-1" d="M341.64,18a3,3,0,0,1-.27,1.22l-22,48.3a2.06,2.06,0,0,1-2,1.56,2.74,2.74,0,0,1-1.23-.27,2.11,2.11,0,0,1-1.55-2,3,3,0,0,1,.27-1.22l6.71-14.85v-.07L306.51,19.33a2.58,2.58,0,0,1-.28-1.22,2.09,2.09,0,0,1,1.5-2A2.67,2.67,0,0,1,309,15.8a2.08,2.08,0,0,1,2,1.43l13.23,27.88L336.83,17.3a2.17,2.17,0,0,1,2-1.5,3,3,0,0,1,1.22.28A2.06,2.06,0,0,1,341.64,18Z"/><path class="cls-1" d="M128.14,73.17a1.78,1.78,0,0,1-.28-.39l-.29-.45a1.83,1.83,0,0,0-.32-.35.6.6,0,0,0-.4-.15,1.13,1.13,0,0,0-.84.31,2,2,0,0,0-.5.76,4.43,4.43,0,0,0-.23,1,8.68,8.68,0,0,0-.07.95V77.5h3v.55h-3V88.14a3.75,3.75,0,0,0,0,.54.55.55,0,0,0,.11.28.38.38,0,0,0,.27.12,3.49,3.49,0,0,0,.51,0v.2h-3.89v-.2a4.45,4.45,0,0,0,.57,0,.64.64,0,0,0,.36-.12.58.58,0,0,0,.2-.31,2.19,2.19,0,0,0,.06-.58v-10h-2.31V77.5h2.31V76.22a7.31,7.31,0,0,1,.22-1.84,4.16,4.16,0,0,1,.7-1.5,3.24,3.24,0,0,1,1.22-1,4.12,4.12,0,0,1,1.83-.38,4.8,4.8,0,0,1,.52,0,5,5,0,0,1,.67.16,2.54,2.54,0,0,1,.57.29.54.54,0,0,1,.25.45.82.82,0,0,1-.14.45,1,1,0,0,1-.32.33.63.63,0,0,1-.4.08.56.56,0,0,1-.38-.24Z"/><path class="cls-1" d="M140.43,86.84a5.52,5.52,0,0,1-2.1,2.06,5.8,5.8,0,0,1-2.71.69,5.43,5.43,0,0,1-4.81-2.72,6.54,6.54,0,0,1-.83-3.46,6.64,6.64,0,0,1,.83-3.48,5.53,5.53,0,0,1,2.09-2.07,5.67,5.67,0,0,1,2.7-.68A5.52,5.52,0,0,1,140.43,80a6.65,6.65,0,0,1,.83,3.45A6.58,6.58,0,0,1,140.43,86.84Zm-1.7-6.25a4.69,4.69,0,0,0-1.41-1.76,3.48,3.48,0,0,0-1.81-.66,2.88,2.88,0,0,0-1.79.51,3.94,3.94,0,0,0-1.34,1.74,7.07,7.07,0,0,0-.49,3,6.38,6.38,0,0,0,.6,2.84A4.67,4.67,0,0,0,133.92,88a3.31,3.31,0,0,0,1.81.64,2.88,2.88,0,0,0,1.78-.54,4.19,4.19,0,0,0,1.36-1.73,7.83,7.83,0,0,0-.14-5.77Z"/><path class="cls-1" d="M148.62,89.31h-4v-.2c.43,0,.71-.06.82-.19a1.32,1.32,0,0,0,.18-.85V79a2.29,2.29,0,0,0-.05-.56c0-.11-.09-.17-.16-.19a1.4,1.4,0,0,0-.3,0,1.35,1.35,0,0,1-.46-.06v-.13l2.21-.74.47,0v2.5a7.43,7.43,0,0,1,.53-.94,5.33,5.33,0,0,1,.69-.85,3.46,3.46,0,0,1,.87-.6,2.38,2.38,0,0,1,1.08-.24,1.61,1.61,0,0,1,.73.2.77.77,0,0,1,.44.62c0,.08,0,.19,0,.32a1.24,1.24,0,0,1-.08.41,1.79,1.79,0,0,1-.2.39.7.7,0,0,1-.32.24.35.35,0,0,1-.39-.08,2.4,2.4,0,0,1-.26-.39,4,4,0,0,0-.28-.43.54.54,0,0,0-.44-.21,1.09,1.09,0,0,0-.53.17,4.3,4.3,0,0,0-.56.42,4.74,4.74,0,0,0-.49.52,4.3,4.3,0,0,0-.35.48,2,2,0,0,0-.35,1.11v7.14a2.05,2.05,0,0,0,.06.57.49.49,0,0,0,.2.29.73.73,0,0,0,.36.1h.57Z"/><path class="cls-1" d="M161.91,89.31v-.25a6.13,6.13,0,0,0,.68,0,.77.77,0,0,0,.41-.13.58.58,0,0,0,.2-.36,4.12,4.12,0,0,0,.05-.7V74a4,4,0,0,0-.05-.69.53.53,0,0,0-.2-.36.86.86,0,0,0-.41-.14l-.68,0v-.25h4.81v.25l-.68,0a.9.9,0,0,0-.41.14.57.57,0,0,0-.2.36,4,4,0,0,0-.05.69V87.84a4.12,4.12,0,0,0,.05.7.63.63,0,0,0,.2.36A.8.8,0,0,0,166,89a6.13,6.13,0,0,0,.68,0v.25Z"/><path class="cls-1" d="M178.08,89.31v-.2c.43,0,.68-.07.77-.2a1.87,1.87,0,0,0,.12-.84V81.42a4.86,4.86,0,0,0-.12-1.09,2.75,2.75,0,0,0-.41-.92,2.22,2.22,0,0,0-.73-.63,2.25,2.25,0,0,0-1.07-.23,2.87,2.87,0,0,0-1.8.58,3.38,3.38,0,0,0-1.1,1.52,3.89,3.89,0,0,0-.14.38,1.77,1.77,0,0,0-.08.37v6.74c0,.28,0,.51,0,.7s.19.27.52.27v.2h-3.17v-.2c.41,0,.66-.07.73-.21a2.13,2.13,0,0,0,.11-.83V79a2,2,0,0,0,0-.54c0-.09-.08-.14-.15-.14a.94.94,0,0,0-.27,0,.91.91,0,0,1-.42,0v-.25l2.13-.74.47,0v2.18a6.54,6.54,0,0,1,1.63-1.68,3.82,3.82,0,0,1,2.24-.63,3.38,3.38,0,0,1,1.58.34,2.9,2.9,0,0,1,1.06.9,4,4,0,0,1,.61,1.32,6.16,6.16,0,0,1,.2,1.58v6.77a1.52,1.52,0,0,0,.15.66.56.56,0,0,0,.57.31v.2Z"/><path class="cls-1" d="M191.59,73.17a1.78,1.78,0,0,1-.28-.39c-.09-.16-.19-.3-.29-.45a1.55,1.55,0,0,0-.32-.35.6.6,0,0,0-.4-.15,1.15,1.15,0,0,0-.84.31,2,2,0,0,0-.5.76,4.43,4.43,0,0,0-.23,1,8.49,8.49,0,0,0-.06.95V77.5h3v.55h-3V88.14a4,4,0,0,0,0,.54.55.55,0,0,0,.11.28.39.39,0,0,0,.28.12,3.25,3.25,0,0,0,.5,0v.2h-3.89v-.2a4.45,4.45,0,0,0,.57,0,.64.64,0,0,0,.36-.12.58.58,0,0,0,.2-.31,2.19,2.19,0,0,0,.06-.58v-10h-2.3V77.5h2.3V76.22a7.79,7.79,0,0,1,.22-1.84,4.16,4.16,0,0,1,.7-1.5,3.2,3.2,0,0,1,1.23-1,4,4,0,0,1,1.82-.38,4.8,4.8,0,0,1,.52,0,5,5,0,0,1,.67.16,2.54,2.54,0,0,1,.57.29.54.54,0,0,1,.25.45.82.82,0,0,1-.14.45,1,1,0,0,1-.32.33.63.63,0,0,1-.4.08.56.56,0,0,1-.38-.24Z"/><path class="cls-1" d="M195.76,89.31v-.2a1.59,1.59,0,0,0,.88-.16c.14-.11.21-.4.21-.88V79.12a1.78,1.78,0,0,0-.06-.57.3.3,0,0,0-.19-.19.86.86,0,0,0-.33,0,1.86,1.86,0,0,1-.54,0v-.13l2.43-.84.47,0V88.14a2.53,2.53,0,0,0,.08.76c0,.14.26.21.64.21v.2Zm2.58-15.44a1.09,1.09,0,0,1-.72.29,1,1,0,0,1-1-1.14,1.07,1.07,0,0,1,.32-.86,1,1,0,0,1,.72-.28,1.07,1.07,0,0,1,.72.28,1.11,1.11,0,0,1,.32.86A1.09,1.09,0,0,1,198.34,73.87Z"/><path class="cls-1" d="M210.81,89.31v-.2c.43,0,.68-.07.77-.2a1.87,1.87,0,0,0,.12-.84V81.42a4.86,4.86,0,0,0-.12-1.09,2.75,2.75,0,0,0-.41-.92,2.13,2.13,0,0,0-.73-.63,2.25,2.25,0,0,0-1.07-.23,2.87,2.87,0,0,0-1.8.58,3.38,3.38,0,0,0-1.1,1.52,3.89,3.89,0,0,0-.14.38,1.77,1.77,0,0,0-.08.37v6.74c0,.28,0,.51,0,.7s.19.27.52.27v.2h-3.17v-.2c.41,0,.66-.07.73-.21a2.13,2.13,0,0,0,.11-.83V79a1.69,1.69,0,0,0-.05-.54c0-.09-.08-.14-.15-.14a.94.94,0,0,0-.27,0,.91.91,0,0,1-.42,0v-.25l2.13-.74.47,0v2.18a6.54,6.54,0,0,1,1.63-1.68,3.82,3.82,0,0,1,2.24-.63,3.38,3.38,0,0,1,1.58.34,2.9,2.9,0,0,1,1.06.9,4,4,0,0,1,.61,1.32,6.16,6.16,0,0,1,.2,1.58v6.77a1.52,1.52,0,0,0,.15.66.57.57,0,0,0,.57.31v.2Z"/><path class="cls-1" d="M218.4,89.31v-.2a1.59,1.59,0,0,0,.88-.16c.14-.11.21-.4.21-.88V79.12a1.47,1.47,0,0,0-.07-.57.29.29,0,0,0-.18-.19.92.92,0,0,0-.34,0,1.79,1.79,0,0,1-.53,0v-.13l2.43-.84.47,0V88.14a2.53,2.53,0,0,0,.08.76c.05.14.26.21.64.21v.2ZM221,73.87a1,1,0,0,1-1.43,0,1.06,1.06,0,0,1-.33-.85,1.08,1.08,0,0,1,.33-.86,1.05,1.05,0,0,1,1.43,0,1.08,1.08,0,0,1,.33.86A1.06,1.06,0,0,1,221,73.87Z"/><path class="cls-1" d="M231.71,88.9a3.94,3.94,0,0,1-.63.36,3.35,3.35,0,0,1-.7.22,3.2,3.2,0,0,1-.65.08,2.61,2.61,0,0,1-1.28-.28,2,2,0,0,1-.76-.73,3.07,3.07,0,0,1-.37-1.07,8.6,8.6,0,0,1-.1-1.27V78.15h-1.86v-.52l1.79-.13a5.15,5.15,0,0,0,.61-1.51,10.08,10.08,0,0,1,.48-1.56.84.84,0,0,0,.22-.1l.25-.12a.33.33,0,0,1,.21,0q.09,0,.09.18V77.5h2.7v.65H229v8.06a5.14,5.14,0,0,0,.06.75,2.93,2.93,0,0,0,.22.76,1.62,1.62,0,0,0,.45.58,1.09,1.09,0,0,0,.73.24,3.25,3.25,0,0,0,.77-.09,2.28,2.28,0,0,0,.72-.31l.2.28A1.45,1.45,0,0,1,231.71,88.9Z"/><path class="cls-1" d="M236.57,82.84a8.61,8.61,0,0,0,.26,1.89,5.76,5.76,0,0,0,.72,1.68,3.63,3.63,0,0,0,1.27,1.19,3.83,3.83,0,0,0,1.89.44,7.25,7.25,0,0,0,1-.07,5.82,5.82,0,0,0,1-.24,3.32,3.32,0,0,0,.93-.44,2.35,2.35,0,0,0,.71-.73l.25.37a4.58,4.58,0,0,1-1.95,2,5.72,5.72,0,0,1-2.71.66,4.93,4.93,0,0,1-2.26-.48,4.38,4.38,0,0,1-1.55-1.27,5.5,5.5,0,0,1-.89-1.89,8.82,8.82,0,0,1-.29-2.27,9.28,9.28,0,0,1,.31-2.34,6.5,6.5,0,0,1,1-2.06,5,5,0,0,1,1.62-1.46,4.66,4.66,0,0,1,2.32-.56,4.28,4.28,0,0,1,2.05.45,4,4,0,0,1,1.36,1.19,5.41,5.41,0,0,1,.81,1.71,11.72,11.72,0,0,1,.37,2l0,.25Zm5.87-2.26a4.23,4.23,0,0,0-.48-1.13,2.41,2.41,0,0,0-.8-.82,2.37,2.37,0,0,0-1.24-.31,3,3,0,0,0-1.37.29,2.77,2.77,0,0,0-1,.77,3.79,3.79,0,0,0-.64,1.11,7.19,7.19,0,0,0-.33,1.33h6A8.92,8.92,0,0,0,242.44,80.58Z"/><path class="cls-1" d="M259.28,87.84a3.9,3.9,0,0,0,.05.69.71.71,0,0,0,.2.36.68.68,0,0,0,.4.14,5.48,5.48,0,0,0,.64,0v.25H256v-.25a3.44,3.44,0,0,0,.61,0,.6.6,0,0,0,.36-.16.67.67,0,0,0,.16-.36,5.13,5.13,0,0,0,0-.66V74a5.17,5.17,0,0,0,0-.64A.67.67,0,0,0,257,73a.55.55,0,0,0-.36-.16,3.44,3.44,0,0,0-.61,0v-.25h5.61a9.12,9.12,0,0,1,2.16.26,5.71,5.71,0,0,1,1.88.82,4,4,0,0,1,1.3,1.45,4.51,4.51,0,0,1,.48,2.16,4.67,4.67,0,0,1-.51,2.27A4.3,4.3,0,0,1,265.57,81a5.66,5.66,0,0,1-2,.83,9.62,9.62,0,0,1-2.29.22l-2-.05Zm0-7.09,1.76,0a6.33,6.33,0,0,0,1.73-.16,3.38,3.38,0,0,0,1.34-.62,2.83,2.83,0,0,0,.86-1.14,4.2,4.2,0,0,0,.31-1.72,3.58,3.58,0,0,0-.33-1.59,2.83,2.83,0,0,0-.91-1.08,4.22,4.22,0,0,0-1.32-.61,6.43,6.43,0,0,0-1.6-.19,3.73,3.73,0,0,1-.46,0,3.91,3.91,0,0,0-.48-.05,4,4,0,0,0-.49,0,1,1,0,0,0-.41.15Z"/><path class="cls-1" d="M270.91,89.31v-.2a1.57,1.57,0,0,0,.88-.16c.14-.11.21-.4.21-.88V79.12a1.78,1.78,0,0,0-.06-.57.29.29,0,0,0-.18-.19.93.93,0,0,0-.34,0,1.77,1.77,0,0,1-.53,0v-.13l2.43-.84.47,0V88.14a2.62,2.62,0,0,0,.07.76c.05.14.27.21.65.21v.2Zm2.58-15.44a1,1,0,0,1-.72.29,1,1,0,0,1-1-1.14,1.11,1.11,0,0,1,.32-.86,1.07,1.07,0,0,1,.72-.28,1,1,0,0,1,.72.28,1.07,1.07,0,0,1,.32.86A1.05,1.05,0,0,1,273.49,73.87Z"/><path class="cls-1" d="M288.16,86.84a5.52,5.52,0,0,1-2.1,2.06,5.77,5.77,0,0,1-2.71.69,5.43,5.43,0,0,1-4.81-2.72,6.54,6.54,0,0,1-.83-3.46,6.64,6.64,0,0,1,.83-3.48,5.53,5.53,0,0,1,2.09-2.07,5.7,5.7,0,0,1,2.71-.68A5.52,5.52,0,0,1,288.16,80a6.65,6.65,0,0,1,.83,3.45A6.58,6.58,0,0,1,288.16,86.84Zm-1.7-6.25a4.69,4.69,0,0,0-1.41-1.76,3.45,3.45,0,0,0-1.81-.66,2.88,2.88,0,0,0-1.79.51,4,4,0,0,0-1.34,1.74,7.23,7.23,0,0,0-.49,3,6.52,6.52,0,0,0,.6,2.84A4.67,4.67,0,0,0,281.65,88a3.34,3.34,0,0,0,1.81.64,2.88,2.88,0,0,0,1.78-.54,4.19,4.19,0,0,0,1.36-1.73,7.83,7.83,0,0,0-.14-5.77Z"/><path class="cls-1" d="M299.73,89.31v-.2c.43,0,.68-.07.76-.2a1.7,1.7,0,0,0,.13-.84V81.42a4.34,4.34,0,0,0-.13-1.09,2.55,2.55,0,0,0-.4-.92,2.16,2.16,0,0,0-.74-.63,2.18,2.18,0,0,0-1.06-.23,2.84,2.84,0,0,0-1.8.58,3.38,3.38,0,0,0-1.1,1.52,2.29,2.29,0,0,0-.14.38,1.42,1.42,0,0,0-.09.37v6.74a6.81,6.81,0,0,0,0,.7c0,.18.19.27.52.27v.2h-3.17v-.2c.41,0,.65-.07.73-.21a2.13,2.13,0,0,0,.11-.83V79a2,2,0,0,0-.05-.54c0-.09-.08-.14-.15-.14a.9.9,0,0,0-.27,0,.91.91,0,0,1-.42,0v-.25l2.13-.74.47,0v2.18a6.67,6.67,0,0,1,1.62-1.68,3.87,3.87,0,0,1,2.25-.63,3.34,3.34,0,0,1,1.57.34,2.85,2.85,0,0,1,1.07.9,4.22,4.22,0,0,1,.61,1.32,6.16,6.16,0,0,1,.19,1.58v6.77a1.52,1.52,0,0,0,.15.66.57.57,0,0,0,.57.31v.2Z"/><path class="cls-1" d="M308.38,82.84a8.61,8.61,0,0,0,.26,1.89,5.76,5.76,0,0,0,.72,1.68,3.69,3.69,0,0,0,1.26,1.19,3.87,3.87,0,0,0,1.9.44,7.12,7.12,0,0,0,1-.07,5.73,5.73,0,0,0,1-.24,3.6,3.6,0,0,0,.93-.44,2.35,2.35,0,0,0,.71-.73l.25.37a4.58,4.58,0,0,1-1.95,2,5.72,5.72,0,0,1-2.71.66,4.93,4.93,0,0,1-2.26-.48A4.29,4.29,0,0,1,308,87.81a5.5,5.5,0,0,1-.89-1.89,8.82,8.82,0,0,1-.29-2.27,9.28,9.28,0,0,1,.31-2.34,6.5,6.5,0,0,1,1-2.06,5,5,0,0,1,1.62-1.46,4.63,4.63,0,0,1,2.32-.56,4.28,4.28,0,0,1,2.05.45,4,4,0,0,1,1.36,1.19,5.39,5.39,0,0,1,.8,1.71,10.83,10.83,0,0,1,.38,2l0,.25Zm5.86-2.26a3.91,3.91,0,0,0-.47-1.13,2.41,2.41,0,0,0-.8-.82,2.37,2.37,0,0,0-1.24-.31,3,3,0,0,0-1.37.29,2.77,2.77,0,0,0-1,.77,3.79,3.79,0,0,0-.64,1.11,6.47,6.47,0,0,0-.33,1.33h6A6.7,6.7,0,0,0,314.24,80.58Z"/><path class="cls-1" d="M322,82.84a8.61,8.61,0,0,0,.26,1.89,5.76,5.76,0,0,0,.72,1.68,3.63,3.63,0,0,0,1.27,1.19,3.83,3.83,0,0,0,1.89.44,7.25,7.25,0,0,0,1-.07,6.15,6.15,0,0,0,1-.24,3.6,3.6,0,0,0,.93-.44,2.44,2.44,0,0,0,.7-.73l.25.37a4.58,4.58,0,0,1-2,2,5.72,5.72,0,0,1-2.71.66,4.93,4.93,0,0,1-2.26-.48,4.38,4.38,0,0,1-1.55-1.27,5.5,5.5,0,0,1-.89-1.89,8.82,8.82,0,0,1-.29-2.27,9.28,9.28,0,0,1,.31-2.34,6.5,6.5,0,0,1,1-2.06,5,5,0,0,1,1.62-1.46,4.66,4.66,0,0,1,2.32-.56,4.28,4.28,0,0,1,2,.45,3.91,3.91,0,0,1,1.36,1.19,5.2,5.2,0,0,1,.81,1.71,11.72,11.72,0,0,1,.37,2l0,.25Zm5.87-2.26a4.23,4.23,0,0,0-.48-1.13,2.41,2.41,0,0,0-.8-.82,2.37,2.37,0,0,0-1.24-.31,3,3,0,0,0-1.36.29,2.72,2.72,0,0,0-1,.77,3.56,3.56,0,0,0-.63,1.11,6.49,6.49,0,0,0-.34,1.33h6A8.92,8.92,0,0,0,327.91,80.58Z"/><path class="cls-1" d="M337,89.31h-4v-.2c.43,0,.7-.06.81-.19a1.32,1.32,0,0,0,.18-.85V79a2.29,2.29,0,0,0,0-.56.25.25,0,0,0-.16-.19,1.4,1.4,0,0,0-.3,0,1.38,1.38,0,0,1-.46-.06v-.13l2.21-.74.47,0v2.5a8.92,8.92,0,0,1,.53-.94,4.88,4.88,0,0,1,.7-.85,3.24,3.24,0,0,1,.86-.6,2.44,2.44,0,0,1,1.08-.24,1.61,1.61,0,0,1,.73.2.77.77,0,0,1,.44.62c0,.08,0,.19,0,.32a1.6,1.6,0,0,1-.09.41,1.79,1.79,0,0,1-.2.39.7.7,0,0,1-.32.24.36.36,0,0,1-.39-.08,3.3,3.3,0,0,1-.26-.39,2.87,2.87,0,0,0-.28-.43.52.52,0,0,0-.44-.21,1.09,1.09,0,0,0-.53.17,5.11,5.11,0,0,0-.56.42,5.94,5.94,0,0,0-.49.52,4.3,4.3,0,0,0-.35.48A2,2,0,0,0,335.8,81v7.14a1.69,1.69,0,0,0,.07.57.48.48,0,0,0,.19.29.73.73,0,0,0,.36.1H337Z"/><path class="cls-2" d="M15.77,69a17.63,17.63,0,0,1-3.12-16.09L10.4,51.06a28.34,28.34,0,0,1-2.68-2.69A23.22,23.22,0,0,0,42.25,77.24l-4.74-3.89A17.7,17.7,0,0,1,15.77,69Z"/><path class="cls-2" d="M18.12,57.4a12.32,12.32,0,0,0,2.63,7.51,12.53,12.53,0,0,0,8.49,4.52,12,12,0,0,0,3.15-.3l-4.05-3.32Z"/><polygon class="cls-2" points="46.44 67.03 42.2 70.52 46.44 74 50.68 70.52 46.44 67.03"/><path class="cls-2" d="M80.22,52.91A17.39,17.39,0,0,1,55.36,73.35l-4.73,3.89A23.22,23.22,0,0,0,85.15,48.37a28.34,28.34,0,0,1-2.68,2.69Z"/><path class="cls-2" d="M77.1,18.59a17.59,17.59,0,0,1,3.12,16.08l2.25,1.85a27.14,27.14,0,0,1,2.6,2.89A23.23,23.23,0,0,0,50.63,10.34l4.73,3.9A17.7,17.7,0,0,1,77.1,18.59Z"/><polygon class="cls-2" points="46.44 20.55 50.68 17.07 46.44 13.58 42.2 17.07 46.44 20.55"/><path class="cls-2" d="M12.65,34.67a17.61,17.61,0,0,1,3.12-16.08,17.7,17.7,0,0,1,21.74-4.35l4.74-3.9A23.24,23.24,0,0,0,7.8,39.41a28.27,28.27,0,0,1,2.6-2.89Z"/><path class="cls-2" d="M78.09,39.6a17,17,0,0,1-3.41,4.19A17.42,17.42,0,0,1,78.09,48l.85-.7a23,23,0,0,0,3.42-3.49,23.46,23.46,0,0,0-3.42-3.49Z"/><path class="cls-2" d="M19.18,51.6,37.85,67c.19-.14.41-.17.59-.31l3.76-3.09L22.42,47.29A12.26,12.26,0,0,0,19.18,51.6Z"/><path class="cls-2" d="M14.78,48a17.67,17.67,0,0,1,3.41-4.19,17.47,17.47,0,0,1-3.41-4.19l-.85.7a23.46,23.46,0,0,0-3.42,3.49,23,23,0,0,0,3.42,3.49Z"/><path class="cls-2" d="M20.75,22.68a12.27,12.27,0,0,0-2.63,7.5L32.39,18.45A12.4,12.4,0,0,0,20.75,22.68Z"/><path class="cls-2" d="M64.53,65.81l-4,3.32a12,12,0,0,0,3.14.3,12.51,12.51,0,0,0,8.49-4.52,12.34,12.34,0,0,0,2.64-7.51Z"/><path class="cls-2" d="M38.44,21a6.63,6.63,0,0,0-.59-.31L19.18,36a12.35,12.35,0,0,0,3.24,4.31L42.2,24Z"/><polygon class="cls-2" points="46.44 27.52 26.65 43.79 46.44 60.06 66.22 43.79 46.44 27.52"/><path class="cls-2" d="M73.7,36,55,20.64c-.18.13-.41.16-.59.31L50.68,24,70.45,40.3A12.51,12.51,0,0,0,73.7,36Z"/><path class="cls-2" d="M54.43,66.64c.18.14.4.17.59.31L73.7,51.6a12.41,12.41,0,0,0-3.25-4.31L50.68,63.55Z"/><path class="cls-2" d="M72.12,22.68a12.39,12.39,0,0,0-11.63-4.23L74.76,30.18A12.29,12.29,0,0,0,72.12,22.68Z"/><path class="cls-3" d="M86.39,11a28.35,28.35,0,0,1,5.31,10A28.35,28.35,0,0,0,86.39,11Z"/><path class="cls-3" d="M86.39,11a28.35,28.35,0,0,1,5.31,10A28.35,28.35,0,0,0,86.39,11Z"/><path class="cls-4" d="M.13,61.24a28.56,28.56,0,0,1,1-10.84A28.56,28.56,0,0,0,.13,61.24Z"/><path class="cls-4" d="M.13,61.24a28.56,28.56,0,0,1,1-10.84A28.56,28.56,0,0,0,.13,61.24Z"/><path class="cls-5" d="M32.39,18.45,18.12,30.18a12.24,12.24,0,0,0-.17,1.7A12.58,12.58,0,0,0,19.18,36L37.85,20.64A12.2,12.2,0,0,0,32.39,18.45Z"/><path class="cls-6" d="M32.39,18.45,18.12,30.18a12.24,12.24,0,0,0-.17,1.7A12.58,12.58,0,0,0,19.18,36L37.85,20.64A12.2,12.2,0,0,0,32.39,18.45Z"/><path class="cls-5" d="M32.39,18.45,18.12,30.18a12.24,12.24,0,0,0-.17,1.7A12.58,12.58,0,0,0,19.18,36L37.85,20.64A12.2,12.2,0,0,0,32.39,18.45Z"/><path class="cls-7" d="M41,16.12l1.16.95,4.24-3.49-2.87-2.35c-.42-.35-.89-.57-1.32-.89l-4.74,3.9A17.13,17.13,0,0,1,41,16.12Z"/><path class="cls-8" d="M41,16.12l1.16.95,4.24-3.49-2.87-2.35c-.42-.35-.89-.57-1.32-.89l-4.74,3.9A17.13,17.13,0,0,1,41,16.12Z"/><path class="cls-7" d="M41,16.12l1.16.95,4.24-3.49-2.87-2.35c-.42-.35-.89-.57-1.32-.89l-4.74,3.9A17.13,17.13,0,0,1,41,16.12Z"/><path class="cls-9" d="M42.25,77.24A23.22,23.22,0,0,1,7.72,48.37c-.44-.48-1-.9-1.39-1.4A28.33,28.33,0,0,1,4.25,43.8a28.86,28.86,0,0,0-3.07,6.6A28.48,28.48,0,0,0,46.44,80.65l-.16-.1Z"/><path class="cls-10" d="M42.25,77.24A23.22,23.22,0,0,1,7.72,48.37c-.44-.48-1-.9-1.39-1.4A28.33,28.33,0,0,1,4.25,43.8a28.86,28.86,0,0,0-3.07,6.6A28.48,28.48,0,0,0,46.44,80.65l-.16-.1Z"/><path class="cls-9" d="M42.25,77.24A23.22,23.22,0,0,1,7.72,48.37c-.44-.48-1-.9-1.39-1.4A28.33,28.33,0,0,1,4.25,43.8a28.86,28.86,0,0,0-3.07,6.6A28.48,28.48,0,0,0,46.44,80.65l-.16-.1Z"/><path class="cls-11" d="M78.94,47.28l-.85.7a17.21,17.21,0,0,1,2.13,4.93l2.25-1.85a28.34,28.34,0,0,0,2.68-2.69,22.72,22.72,0,0,0-2.79-4.58A23,23,0,0,1,78.94,47.28Z"/><path class="cls-12" d="M78.94,47.28l-.85.7a17.21,17.21,0,0,1,2.13,4.93l2.25-1.85a28.34,28.34,0,0,0,2.68-2.69,22.72,22.72,0,0,0-2.79-4.58A23,23,0,0,1,78.94,47.28Z"/><path class="cls-11" d="M78.94,47.28l-.85.7a17.21,17.21,0,0,1,2.13,4.93l2.25-1.85a28.34,28.34,0,0,0,2.68-2.69,22.72,22.72,0,0,0-2.79-4.58A23,23,0,0,1,78.94,47.28Z"/><path class="cls-13" d="M50.63,10.34A23.23,23.23,0,0,1,85.07,39.41a28.21,28.21,0,0,1,3.55,4.39,28.47,28.47,0,0,0,4.13-17.45,28,28,0,0,0-1-5.41,28.46,28.46,0,0,0-45.26-14A1.53,1.53,0,0,0,46.6,7Z"/><path class="cls-14" d="M50.63,10.34A23.23,23.23,0,0,1,85.07,39.41a28.21,28.21,0,0,1,3.55,4.39,28.47,28.47,0,0,0,4.13-17.45,28,28,0,0,0-1-5.41,28.46,28.46,0,0,0-45.26-14A1.53,1.53,0,0,0,46.6,7Z"/><path class="cls-13" d="M50.63,10.34A23.23,23.23,0,0,1,85.07,39.41a28.21,28.21,0,0,1,3.55,4.39,28.47,28.47,0,0,0,4.13-17.45,28,28,0,0,0-1-5.41,28.46,28.46,0,0,0-45.26-14A1.53,1.53,0,0,0,46.6,7Z"/><path class="cls-15" d="M51.83,71.47l-1.15-1L46.44,74l2.86,2.36c.42.34.89.57,1.33.88l4.73-3.89A17.9,17.9,0,0,1,51.83,71.47Z"/><path class="cls-16" d="M51.83,71.47l-1.15-1L46.44,74l2.86,2.36c.42.34.89.57,1.33.88l4.73-3.89A17.9,17.9,0,0,1,51.83,71.47Z"/><path class="cls-15" d="M51.83,71.47l-1.15-1L46.44,74l2.86,2.36c.42.34.89.57,1.33.88l4.73-3.89A17.9,17.9,0,0,1,51.83,71.47Z"/><path class="cls-16" d="M51.83,71.47l-1.15-1L46.44,74l2.86,2.36c.42.34.89.57,1.33.88l4.73-3.89A17.9,17.9,0,0,1,51.83,71.47Z"/><path class="cls-17" d="M60.49,69.13l4-3.32L74.76,57.4a14,14,0,0,0,.16-1.7,12.75,12.75,0,0,0-1.22-4.1L55,67A12.17,12.17,0,0,0,60.49,69.13Z"/><path class="cls-18" d="M60.49,69.13l4-3.32L74.76,57.4a14,14,0,0,0,.16-1.7,12.75,12.75,0,0,0-1.22-4.1L55,67A12.17,12.17,0,0,0,60.49,69.13Z"/><path class="cls-17" d="M60.49,69.13l4-3.32L74.76,57.4a14,14,0,0,0,.16-1.7,12.75,12.75,0,0,0-1.22-4.1L55,67A12.17,12.17,0,0,0,60.49,69.13Z"/><path class="cls-19" d="M14.78,39.6a17.37,17.37,0,0,1-2.13-4.93L10.4,36.52a28.27,28.27,0,0,0-2.6,2.89,23.11,23.11,0,0,0,2.71,4.38,23.46,23.46,0,0,1,3.42-3.49Z"/><path class="cls-20" d="M14.78,39.6a17.37,17.37,0,0,1-2.13-4.93L10.4,36.52a28.27,28.27,0,0,0-2.6,2.89,23.11,23.11,0,0,0,2.71,4.38,23.46,23.46,0,0,1,3.42-3.49Z"/><path class="cls-19" d="M14.78,39.6a17.37,17.37,0,0,1-2.13-4.93L10.4,36.52a28.27,28.27,0,0,0-2.6,2.89,23.11,23.11,0,0,0,2.71,4.38,23.46,23.46,0,0,1,3.42-3.49Z"/><path class="cls-21" d="M70.45,40.3l4.18,3.43s0,.05.05.06a17,17,0,0,0,3.41-4.19L73.7,36A12.51,12.51,0,0,1,70.45,40.3Z"/><path class="cls-22" d="M70.45,40.3l4.18,3.43s0,.05.05.06a17,17,0,0,0,3.41-4.19L73.7,36A12.51,12.51,0,0,1,70.45,40.3Z"/><path class="cls-21" d="M70.45,40.3l4.18,3.43s0,.05.05.06a17,17,0,0,0,3.41-4.19L73.7,36A12.51,12.51,0,0,1,70.45,40.3Z"/><path class="cls-22" d="M70.45,40.3l4.18,3.43s0,.05.05.06a17,17,0,0,0,3.41-4.19L73.7,36A12.51,12.51,0,0,1,70.45,40.3Z"/><path class="cls-23" d="M38.44,66.64c-.18.14-.4.17-.59.31l4.35,3.57L46.44,67,42.2,63.55Z"/><path class="cls-24" d="M38.44,66.64c-.18.14-.4.17-.59.31l4.35,3.57L46.44,67,42.2,63.55Z"/><path class="cls-23" d="M38.44,66.64c-.18.14-.4.17-.59.31l4.35,3.57L46.44,67,42.2,63.55Z"/><path class="cls-24" d="M38.44,66.64c-.18.14-.4.17-.59.31l4.35,3.57L46.44,67,42.2,63.55Z"/><path class="cls-25" d="M72.12,22.68a12.29,12.29,0,0,1,2.64,7.5l5.46,4.49A17.59,17.59,0,0,0,77.1,18.59a17.7,17.7,0,0,0-21.74-4.35l5.13,4.21A12.39,12.39,0,0,1,72.12,22.68Z"/><path class="cls-26" d="M72.12,22.68a12.29,12.29,0,0,1,2.64,7.5l5.46,4.49A17.59,17.59,0,0,0,77.1,18.59a17.7,17.7,0,0,0-21.74-4.35l5.13,4.21A12.39,12.39,0,0,1,72.12,22.68Z"/><path class="cls-25" d="M72.12,22.68a12.29,12.29,0,0,1,2.64,7.5l5.46,4.49A17.59,17.59,0,0,0,77.1,18.59a17.7,17.7,0,0,0-21.74-4.35l5.13,4.21A12.39,12.39,0,0,1,72.12,22.68Z"/><path class="cls-26" d="M72.12,22.68a12.29,12.29,0,0,1,2.64,7.5l5.46,4.49A17.59,17.59,0,0,0,77.1,18.59a17.7,17.7,0,0,0-21.74-4.35l5.13,4.21A12.39,12.39,0,0,1,72.12,22.68Z"/><path class="cls-27" d="M22.42,47.29l-4.18-3.44,0-.06A17.67,17.67,0,0,0,14.78,48l4.4,3.62A12.26,12.26,0,0,1,22.42,47.29Z"/><path class="cls-28" d="M22.42,47.29l-4.18-3.44,0-.06A17.67,17.67,0,0,0,14.78,48l4.4,3.62A12.26,12.26,0,0,1,22.42,47.29Z"/><path class="cls-27" d="M22.42,47.29l-4.18-3.44,0-.06A17.67,17.67,0,0,0,14.78,48l4.4,3.62A12.26,12.26,0,0,1,22.42,47.29Z"/><path class="cls-28" d="M22.42,47.29l-4.18-3.44,0-.06A17.67,17.67,0,0,0,14.78,48l4.4,3.62A12.26,12.26,0,0,1,22.42,47.29Z"/><path class="cls-29" d="M29.24,69.43a12.53,12.53,0,0,1-8.49-4.52,12.26,12.26,0,0,1-2.63-7.51l-5.47-4.49A17.39,17.39,0,0,0,37.51,73.35l-5.12-4.22A12,12,0,0,1,29.24,69.43Z"/><path class="cls-30" d="M29.24,69.43a12.53,12.53,0,0,1-8.49-4.52,12.26,12.26,0,0,1-2.63-7.51l-5.47-4.49A17.39,17.39,0,0,0,37.51,73.35l-5.12-4.22A12,12,0,0,1,29.24,69.43Z"/><path class="cls-29" d="M29.24,69.43a12.53,12.53,0,0,1-8.49-4.52,12.26,12.26,0,0,1-2.63-7.51l-5.47-4.49A17.39,17.39,0,0,0,37.51,73.35l-5.12-4.22A12,12,0,0,1,29.24,69.43Z"/><path class="cls-30" d="M29.24,69.43a12.53,12.53,0,0,1-8.49-4.52,12.26,12.26,0,0,1-2.63-7.51l-5.47-4.49A17.39,17.39,0,0,0,37.51,73.35l-5.12-4.22A12,12,0,0,1,29.24,69.43Z"/><path class="cls-31" d="M54.43,21c.18-.15.41-.18.59-.31l-4.34-3.57-4.24,3.49L50.68,24Z"/><path class="cls-32" d="M54.43,21c.18-.15.41-.18.59-.31l-4.34-3.57-4.24,3.49L50.68,24Z"/><path class="cls-31" d="M54.43,21c.18-.15.41-.18.59-.31l-4.34-3.57-4.24,3.49L50.68,24Z"/><path class="cls-32" d="M54.43,21c.18-.15.41-.18.59-.31l-4.34-3.57-4.24,3.49L50.68,24Z"/><path class="cls-33" d="M66.23,43.79,46.44,60.06l4.24,3.49L70.45,47.29s0,0-.06-.07Z"/><path class="cls-34" d="M66.23,43.79,46.44,60.06l4.24,3.49L70.45,47.29s0,0-.06-.07Z"/><path class="cls-33" d="M66.23,43.79,46.44,60.06l4.24,3.49L70.45,47.29s0,0-.06-.07Z"/><path class="cls-34" d="M66.23,43.79,46.44,60.06l4.24,3.49L70.45,47.29s0,0-.06-.07Z"/><path class="cls-35" d="M42.2,24,22.42,40.3s0,.05.06.07l4.17,3.42L46.44,27.53Z"/><path class="cls-36" d="M42.2,24,22.42,40.3s0,.05.06.07l4.17,3.42L46.44,27.53Z"/><path class="cls-35" d="M42.2,24,22.42,40.3s0,.05.06.07l4.17,3.42L46.44,27.53Z"/><path class="cls-36" d="M42.2,24,22.42,40.3s0,.05.06.07l4.17,3.42L46.44,27.53Z"/><path class="cls-37" d="M18.12,57.4a12.26,12.26,0,0,0,2.63,7.51,12.32,12.32,0,0,1-2.63-7.51Z"/><path class="cls-38" d="M18.12,57.4a12.26,12.26,0,0,0,2.63,7.51,12.32,12.32,0,0,1-2.63-7.51Z"/><path class="cls-39" d="M1.17,20.94A28.38,28.38,0,0,1,6.49,11,28.38,28.38,0,0,0,1.17,20.94Z"/><path class="cls-39" d="M1.17,20.94A28.38,28.38,0,0,1,6.49,11,28.38,28.38,0,0,0,1.17,20.94Z"/><path class="cls-40" d="M92.75,61.24A28.77,28.77,0,0,0,91.69,50.4,28.77,28.77,0,0,1,92.75,61.24Z"/><path class="cls-40" d="M92.75,61.24A28.77,28.77,0,0,0,91.69,50.4,28.77,28.77,0,0,1,92.75,61.24Z"/><path class="cls-41" d="M12.65,52.91A17.5,17.5,0,0,1,14.78,48l-.85-.7a23,23,0,0,1-3.42-3.49,23.19,23.19,0,0,0-2.79,4.58,28.34,28.34,0,0,0,2.68,2.69Z"/><path class="cls-42" d="M12.65,52.91A17.5,17.5,0,0,1,14.78,48l-.85-.7a23,23,0,0,1-3.42-3.49,23.19,23.19,0,0,0-2.79,4.58,28.34,28.34,0,0,0,2.68,2.69Z"/><path class="cls-41" d="M12.65,52.91A17.5,17.5,0,0,1,14.78,48l-.85-.7a23,23,0,0,1-3.42-3.49,23.19,23.19,0,0,0-2.79,4.58,28.34,28.34,0,0,0,2.68,2.69Z"/><path class="cls-42" d="M12.65,52.91A17.5,17.5,0,0,1,14.78,48l-.85-.7a23,23,0,0,1-3.42-3.49,23.19,23.19,0,0,0-2.79,4.58,28.34,28.34,0,0,0,2.68,2.69Z"/><path class="cls-43" d="M18,55.7a12.24,12.24,0,0,0,.17,1.7l10.22,8.41,4.05,3.32A12.18,12.18,0,0,0,37.85,67L19.18,51.6A12.52,12.52,0,0,0,18,55.7Z"/><path class="cls-44" d="M18,55.7a12.24,12.24,0,0,0,.17,1.7l10.22,8.41,4.05,3.32A12.18,12.18,0,0,0,37.85,67L19.18,51.6A12.52,12.52,0,0,0,18,55.7Z"/><path class="cls-43" d="M18,55.7a12.24,12.24,0,0,0,.17,1.7l10.22,8.41,4.05,3.32A12.18,12.18,0,0,0,37.85,67L19.18,51.6A12.52,12.52,0,0,0,18,55.7Z"/><path class="cls-44" d="M18,55.7a12.24,12.24,0,0,0,.17,1.7l10.22,8.41,4.05,3.32A12.18,12.18,0,0,0,37.85,67L19.18,51.6A12.52,12.52,0,0,0,18,55.7Z"/><path class="cls-45" d="M80.22,34.67a17.1,17.1,0,0,1-2.13,4.93l.85.7a23.46,23.46,0,0,1,3.42,3.49,22.61,22.61,0,0,0,2.71-4.38,27.14,27.14,0,0,0-2.6-2.89Z"/><path class="cls-46" d="M80.22,34.67a17.1,17.1,0,0,1-2.13,4.93l.85.7a23.46,23.46,0,0,1,3.42,3.49,22.61,22.61,0,0,0,2.71-4.38,27.14,27.14,0,0,0-2.6-2.89Z"/><path class="cls-45" d="M80.22,34.67a17.1,17.1,0,0,1-2.13,4.93l.85.7a23.46,23.46,0,0,1,3.42,3.49,22.61,22.61,0,0,0,2.71-4.38,27.14,27.14,0,0,0-2.6-2.89Z"/><path class="cls-46" d="M80.22,34.67a17.1,17.1,0,0,1-2.13,4.93l.85.7a23.46,23.46,0,0,1,3.42,3.49,22.61,22.61,0,0,0,2.71-4.38,27.14,27.14,0,0,0-2.6-2.89Z"/><path class="cls-47" d="M74.92,31.88a14,14,0,0,0-.16-1.7L60.49,18.45A12.19,12.19,0,0,0,55,20.64L73.7,36A12.8,12.8,0,0,0,74.92,31.88Z"/><path class="cls-48" d="M74.92,31.88a14,14,0,0,0-.16-1.7L60.49,18.45A12.19,12.19,0,0,0,55,20.64L73.7,36A12.8,12.8,0,0,0,74.92,31.88Z"/><path class="cls-47" d="M74.92,31.88a14,14,0,0,0-.16-1.7L60.49,18.45A12.19,12.19,0,0,0,55,20.64L73.7,36A12.8,12.8,0,0,0,74.92,31.88Z"/><path class="cls-48" d="M74.92,31.88a14,14,0,0,0-.16-1.7L60.49,18.45A12.19,12.19,0,0,0,55,20.64L73.7,36A12.8,12.8,0,0,0,74.92,31.88Z"/><path class="cls-49" d="M10.73,14.44a23.27,23.27,0,0,1,31.52-4.1l4-3.31a1.53,1.53,0,0,0,.16-.11,28.51,28.51,0,0,0-45.27,14A28.17,28.17,0,0,0,4.25,43.8,28.8,28.8,0,0,1,7.8,39.41,23.27,23.27,0,0,1,10.73,14.44Z"/><path class="cls-50" d="M10.73,14.44a23.27,23.27,0,0,1,31.52-4.1l4-3.31a1.53,1.53,0,0,0,.16-.11,28.51,28.51,0,0,0-45.27,14A28.17,28.17,0,0,0,4.25,43.8,28.8,28.8,0,0,1,7.8,39.41,23.27,23.27,0,0,1,10.73,14.44Z"/><path class="cls-49" d="M10.73,14.44a23.27,23.27,0,0,1,31.52-4.1l4-3.31a1.53,1.53,0,0,0,.16-.11,28.51,28.51,0,0,0-45.27,14A28.17,28.17,0,0,0,4.25,43.8,28.8,28.8,0,0,1,7.8,39.41,23.27,23.27,0,0,1,10.73,14.44Z"/><path class="cls-50" d="M10.73,14.44a23.27,23.27,0,0,1,31.52-4.1l4-3.31a1.53,1.53,0,0,0,.16-.11,28.51,28.51,0,0,0-45.27,14A28.17,28.17,0,0,0,4.25,43.8,28.8,28.8,0,0,1,7.8,39.41,23.27,23.27,0,0,1,10.73,14.44Z"/><path class="cls-51" d="M88.62,43.8A27,27,0,0,1,86.54,47c-.41.5-.94.92-1.39,1.4A23.22,23.22,0,0,1,50.63,77.24l-4,3.31-.16.1a28.48,28.48,0,0,0,35.85.06A27.89,27.89,0,0,0,88.62,43.8Z"/><path class="cls-52" d="M88.62,43.8A27,27,0,0,1,86.54,47c-.41.5-.94.92-1.39,1.4A23.22,23.22,0,0,1,50.63,77.24l-4,3.31-.16.1a28.48,28.48,0,0,0,35.85.06A27.89,27.89,0,0,0,88.62,43.8Z"/><path class="cls-51" d="M88.62,43.8A27,27,0,0,1,86.54,47c-.41.5-.94.92-1.39,1.4A23.22,23.22,0,0,1,50.63,77.24l-4,3.31-.16.1a28.48,28.48,0,0,0,35.85.06A27.89,27.89,0,0,0,88.62,43.8Z"/><path class="cls-52" d="M88.62,43.8A27,27,0,0,1,86.54,47c-.41.5-.94.92-1.39,1.4A23.22,23.22,0,0,1,50.63,77.24l-4,3.31-.16.1a28.48,28.48,0,0,0,35.85.06A27.89,27.89,0,0,0,88.62,43.8Z"/><path class="cls-53" d="M82.36,43.79a22.72,22.72,0,0,1,2.79,4.58c.45-.48,1-.9,1.39-1.4a27,27,0,0,0,2.08-3.17,28.21,28.21,0,0,0-3.55-4.39A22.61,22.61,0,0,1,82.36,43.79Z"/><path class="cls-54" d="M82.36,43.79a22.72,22.72,0,0,1,2.79,4.58c.45-.48,1-.9,1.39-1.4a27,27,0,0,0,2.08-3.17,28.21,28.21,0,0,0-3.55-4.39A22.61,22.61,0,0,1,82.36,43.79Z"/><path class="cls-53" d="M82.36,43.79a22.72,22.72,0,0,1,2.79,4.58c.45-.48,1-.9,1.39-1.4a27,27,0,0,0,2.08-3.17,28.21,28.21,0,0,0-3.55-4.39A22.61,22.61,0,0,1,82.36,43.79Z"/><path class="cls-54" d="M82.36,43.79a22.72,22.72,0,0,1,2.79,4.58c.45-.48,1-.9,1.39-1.4a27,27,0,0,0,2.08-3.17,28.21,28.21,0,0,0-3.55-4.39A22.61,22.61,0,0,1,82.36,43.79Z"/><path class="cls-55" d="M82.36,43.79a22.72,22.72,0,0,1,2.79,4.58c.45-.48,1-.9,1.39-1.4a27,27,0,0,0,2.08-3.17,28.21,28.21,0,0,0-3.55-4.39A22.61,22.61,0,0,1,82.36,43.79Z"/><path class="cls-56" d="M82.36,43.79a22.72,22.72,0,0,1,2.79,4.58c.45-.48,1-.9,1.39-1.4a27,27,0,0,0,2.08-3.17,28.21,28.21,0,0,0-3.55-4.39A22.61,22.61,0,0,1,82.36,43.79Z"/><path class="cls-55" d="M82.36,43.79a22.72,22.72,0,0,1,2.79,4.58c.45-.48,1-.9,1.39-1.4a27,27,0,0,0,2.08-3.17,28.21,28.21,0,0,0-3.55-4.39A22.61,22.61,0,0,1,82.36,43.79Z"/><path class="cls-56" d="M82.36,43.79a22.72,22.72,0,0,1,2.79,4.58c.45-.48,1-.9,1.39-1.4a27,27,0,0,0,2.08-3.17,28.21,28.21,0,0,0-3.55-4.39A22.61,22.61,0,0,1,82.36,43.79Z"/><path class="cls-57" d="M42.25,10.34c.43.32.9.54,1.32.89l2.87,2.35,2.86-2.35c.42-.35.89-.57,1.33-.89L46.6,7a1.53,1.53,0,0,1-.16-.11,1.53,1.53,0,0,1-.16.11Z"/><path class="cls-58" d="M42.25,10.34c.43.32.9.54,1.32.89l2.87,2.35,2.86-2.35c.42-.35.89-.57,1.33-.89L46.6,7a1.53,1.53,0,0,1-.16-.11,1.53,1.53,0,0,1-.16.11Z"/><path class="cls-57" d="M42.25,10.34c.43.32.9.54,1.32.89l2.87,2.35,2.86-2.35c.42-.35.89-.57,1.33-.89L46.6,7a1.53,1.53,0,0,1-.16-.11,1.53,1.53,0,0,1-.16.11Z"/><path class="cls-58" d="M42.25,10.34c.43.32.9.54,1.32.89l2.87,2.35,2.86-2.35c.42-.35.89-.57,1.33-.89L46.6,7a1.53,1.53,0,0,1-.16-.11,1.53,1.53,0,0,1-.16.11Z"/><path class="cls-59" d="M42.25,10.34c.43.32.9.54,1.32.89l2.87,2.35,2.86-2.35c.42-.35.89-.57,1.33-.89L46.6,7a1.53,1.53,0,0,1-.16-.11,1.53,1.53,0,0,1-.16.11Z"/><path class="cls-60" d="M42.25,10.34c.43.32.9.54,1.32.89l2.87,2.35,2.86-2.35c.42-.35.89-.57,1.33-.89L46.6,7a1.53,1.53,0,0,1-.16-.11,1.53,1.53,0,0,1-.16.11Z"/><path class="cls-59" d="M42.25,10.34c.43.32.9.54,1.32.89l2.87,2.35,2.86-2.35c.42-.35.89-.57,1.33-.89L46.6,7a1.53,1.53,0,0,1-.16-.11,1.53,1.53,0,0,1-.16.11Z"/><path class="cls-60" d="M42.25,10.34c.43.32.9.54,1.32.89l2.87,2.35,2.86-2.35c.42-.35.89-.57,1.33-.89L46.6,7a1.53,1.53,0,0,1-.16-.11,1.53,1.53,0,0,1-.16.11Z"/><path class="cls-61" d="M50.63,77.24c-.44-.31-.91-.54-1.33-.88L46.44,74l-2.87,2.36c-.42.34-.89.57-1.32.88l4,3.31.16.1.16-.1Z"/><path class="cls-62" d="M50.63,77.24c-.44-.31-.91-.54-1.33-.88L46.44,74l-2.87,2.36c-.42.34-.89.57-1.32.88l4,3.31.16.1.16-.1Z"/><path class="cls-61" d="M50.63,77.24c-.44-.31-.91-.54-1.33-.88L46.44,74l-2.87,2.36c-.42.34-.89.57-1.32.88l4,3.31.16.1.16-.1Z"/><path class="cls-62" d="M50.63,77.24c-.44-.31-.91-.54-1.33-.88L46.44,74l-2.87,2.36c-.42.34-.89.57-1.32.88l4,3.31.16.1.16-.1Z"/><path class="cls-63" d="M50.63,77.24c-.44-.31-.91-.54-1.33-.88L46.44,74l-2.87,2.36c-.42.34-.89.57-1.32.88l4,3.31.16.1.16-.1Z"/><path class="cls-64" d="M50.63,77.24c-.44-.31-.91-.54-1.33-.88L46.44,74l-2.87,2.36c-.42.34-.89.57-1.32.88l4,3.31.16.1.16-.1Z"/><path class="cls-63" d="M50.63,77.24c-.44-.31-.91-.54-1.33-.88L46.44,74l-2.87,2.36c-.42.34-.89.57-1.32.88l4,3.31.16.1.16-.1Z"/><path class="cls-64" d="M50.63,77.24c-.44-.31-.91-.54-1.33-.88L46.44,74l-2.87,2.36c-.42.34-.89.57-1.32.88l4,3.31.16.1.16-.1Z"/><path class="cls-65" d="M74.92,31.88A12.8,12.8,0,0,1,73.7,36l4.39,3.61a17.1,17.1,0,0,0,2.13-4.93l-5.46-4.49A14,14,0,0,1,74.92,31.88Z"/><path class="cls-66" d="M74.92,31.88A12.8,12.8,0,0,1,73.7,36l4.39,3.61a17.1,17.1,0,0,0,2.13-4.93l-5.46-4.49A14,14,0,0,1,74.92,31.88Z"/><path class="cls-65" d="M74.92,31.88A12.8,12.8,0,0,1,73.7,36l4.39,3.61a17.1,17.1,0,0,0,2.13-4.93l-5.46-4.49A14,14,0,0,1,74.92,31.88Z"/><path class="cls-66" d="M74.92,31.88A12.8,12.8,0,0,1,73.7,36l4.39,3.61a17.1,17.1,0,0,0,2.13-4.93l-5.46-4.49A14,14,0,0,1,74.92,31.88Z"/><path class="cls-67" d="M74.92,31.88A12.8,12.8,0,0,1,73.7,36l4.39,3.61a17.1,17.1,0,0,0,2.13-4.93l-5.46-4.49A14,14,0,0,1,74.92,31.88Z"/><path class="cls-68" d="M74.92,31.88A12.8,12.8,0,0,1,73.7,36l4.39,3.61a17.1,17.1,0,0,0,2.13-4.93l-5.46-4.49A14,14,0,0,1,74.92,31.88Z"/><path class="cls-67" d="M74.92,31.88A12.8,12.8,0,0,1,73.7,36l4.39,3.61a17.1,17.1,0,0,0,2.13-4.93l-5.46-4.49A14,14,0,0,1,74.92,31.88Z"/><path class="cls-68" d="M74.92,31.88A12.8,12.8,0,0,1,73.7,36l4.39,3.61a17.1,17.1,0,0,0,2.13-4.93l-5.46-4.49A14,14,0,0,1,74.92,31.88Z"/><path class="cls-69" d="M60.49,18.45l-5.13-4.21a17.39,17.39,0,0,0-3.53,1.88l-1.15.95L55,20.64A12.19,12.19,0,0,1,60.49,18.45Z"/><path class="cls-70" d="M60.49,18.45l-5.13-4.21a17.39,17.39,0,0,0-3.53,1.88l-1.15.95L55,20.64A12.19,12.19,0,0,1,60.49,18.45Z"/><path class="cls-69" d="M60.49,18.45l-5.13-4.21a17.39,17.39,0,0,0-3.53,1.88l-1.15.95L55,20.64A12.19,12.19,0,0,1,60.49,18.45Z"/><path class="cls-70" d="M60.49,18.45l-5.13-4.21a17.39,17.39,0,0,0-3.53,1.88l-1.15.95L55,20.64A12.19,12.19,0,0,1,60.49,18.45Z"/><path class="cls-71" d="M60.49,18.45l-5.13-4.21a17.39,17.39,0,0,0-3.53,1.88l-1.15.95L55,20.64A12.19,12.19,0,0,1,60.49,18.45Z"/><path class="cls-72" d="M60.49,18.45l-5.13-4.21a17.39,17.39,0,0,0-3.53,1.88l-1.15.95L55,20.64A12.19,12.19,0,0,1,60.49,18.45Z"/><path class="cls-71" d="M60.49,18.45l-5.13-4.21a17.39,17.39,0,0,0-3.53,1.88l-1.15.95L55,20.64A12.19,12.19,0,0,1,60.49,18.45Z"/><path class="cls-72" d="M60.49,18.45l-5.13-4.21a17.39,17.39,0,0,0-3.53,1.88l-1.15.95L55,20.64A12.19,12.19,0,0,1,60.49,18.45Z"/><path class="cls-73" d="M32.39,69.13l5.12,4.22A17.62,17.62,0,0,0,41,71.47l1.16-1L37.85,67A12.18,12.18,0,0,1,32.39,69.13Z"/><path class="cls-74" d="M32.39,69.13l5.12,4.22A17.62,17.62,0,0,0,41,71.47l1.16-1L37.85,67A12.18,12.18,0,0,1,32.39,69.13Z"/><path class="cls-73" d="M32.39,69.13l5.12,4.22A17.62,17.62,0,0,0,41,71.47l1.16-1L37.85,67A12.18,12.18,0,0,1,32.39,69.13Z"/><path class="cls-74" d="M32.39,69.13l5.12,4.22A17.62,17.62,0,0,0,41,71.47l1.16-1L37.85,67A12.18,12.18,0,0,1,32.39,69.13Z"/><path class="cls-75" d="M32.39,69.13l5.12,4.22A17.62,17.62,0,0,0,41,71.47l1.16-1L37.85,67A12.18,12.18,0,0,1,32.39,69.13Z"/><path class="cls-76" d="M32.39,69.13l5.12,4.22A17.62,17.62,0,0,0,41,71.47l1.16-1L37.85,67A12.18,12.18,0,0,1,32.39,69.13Z"/><path class="cls-75" d="M32.39,69.13l5.12,4.22A17.62,17.62,0,0,0,41,71.47l1.16-1L37.85,67A12.18,12.18,0,0,1,32.39,69.13Z"/><path class="cls-76" d="M32.39,69.13l5.12,4.22A17.62,17.62,0,0,0,41,71.47l1.16-1L37.85,67A12.18,12.18,0,0,1,32.39,69.13Z"/><path class="cls-77" d="M18,55.7a12.52,12.52,0,0,1,1.23-4.1L14.78,48a17.5,17.5,0,0,0-2.13,4.93l5.47,4.49A12.24,12.24,0,0,1,18,55.7Z"/><path class="cls-78" d="M18,55.7a12.52,12.52,0,0,1,1.23-4.1L14.78,48a17.5,17.5,0,0,0-2.13,4.93l5.47,4.49A12.24,12.24,0,0,1,18,55.7Z"/><path class="cls-77" d="M18,55.7a12.52,12.52,0,0,1,1.23-4.1L14.78,48a17.5,17.5,0,0,0-2.13,4.93l5.47,4.49A12.24,12.24,0,0,1,18,55.7Z"/><path class="cls-78" d="M18,55.7a12.52,12.52,0,0,1,1.23-4.1L14.78,48a17.5,17.5,0,0,0-2.13,4.93l5.47,4.49A12.24,12.24,0,0,1,18,55.7Z"/><path class="cls-79" d="M18,55.7a12.52,12.52,0,0,1,1.23-4.1L14.78,48a17.5,17.5,0,0,0-2.13,4.93l5.47,4.49A12.24,12.24,0,0,1,18,55.7Z"/><path class="cls-80" d="M18,55.7a12.52,12.52,0,0,1,1.23-4.1L14.78,48a17.5,17.5,0,0,0-2.13,4.93l5.47,4.49A12.24,12.24,0,0,1,18,55.7Z"/><path class="cls-79" d="M18,55.7a12.52,12.52,0,0,1,1.23-4.1L14.78,48a17.5,17.5,0,0,0-2.13,4.93l5.47,4.49A12.24,12.24,0,0,1,18,55.7Z"/><path class="cls-80" d="M18,55.7a12.52,12.52,0,0,1,1.23-4.1L14.78,48a17.5,17.5,0,0,0-2.13,4.93l5.47,4.49A12.24,12.24,0,0,1,18,55.7Z"/><path class="cls-37" d="M18,55.7a12.24,12.24,0,0,0,.17,1.7h0A12.24,12.24,0,0,1,18,55.7Z"/><path class="cls-81" d="M18,55.7a12.24,12.24,0,0,0,.17,1.7h0A12.24,12.24,0,0,1,18,55.7Z"/><path class="cls-82" d="M18,55.7a12.24,12.24,0,0,0,.17,1.7h0A12.24,12.24,0,0,1,18,55.7Z"/><path class="cls-83" d="M18,55.7a12.24,12.24,0,0,0,.17,1.7h0A12.24,12.24,0,0,1,18,55.7Z"/><path class="cls-82" d="M18,55.7a12.24,12.24,0,0,0,.17,1.7h0A12.24,12.24,0,0,1,18,55.7Z"/><path class="cls-83" d="M18,55.7a12.24,12.24,0,0,0,.17,1.7h0A12.24,12.24,0,0,1,18,55.7Z"/><path class="cls-84" d="M70.39,40.37s0-.06.06-.07L50.68,24l-4.24,3.49L66.23,43.79Z"/><path class="cls-85" d="M20.75,22.68a12.4,12.4,0,0,1,11.64-4.23l5.12-4.21a17.7,17.7,0,0,0-21.74,4.35,17.61,17.61,0,0,0-3.12,16.08l5.47-4.49A12.27,12.27,0,0,1,20.75,22.68Z"/><path class="cls-86" d="M20.75,22.68a12.4,12.4,0,0,1,11.64-4.23l5.12-4.21a17.7,17.7,0,0,0-21.74,4.35,17.61,17.61,0,0,0-3.12,16.08l5.47-4.49A12.27,12.27,0,0,1,20.75,22.68Z"/><path class="cls-85" d="M20.75,22.68a12.4,12.4,0,0,1,11.64-4.23l5.12-4.21a17.7,17.7,0,0,0-21.74,4.35,17.61,17.61,0,0,0-3.12,16.08l5.47-4.49A12.27,12.27,0,0,1,20.75,22.68Z"/><path class="cls-86" d="M20.75,22.68a12.4,12.4,0,0,1,11.64-4.23l5.12-4.21a17.7,17.7,0,0,0-21.74,4.35,17.61,17.61,0,0,0-3.12,16.08l5.47-4.49A12.27,12.27,0,0,1,20.75,22.68Z"/><path class="cls-87" d="M72.12,64.91a12.51,12.51,0,0,1-8.49,4.52,12,12,0,0,1-3.14-.3l-5.13,4.22A17.39,17.39,0,0,0,80.22,52.91L74.76,57.4A12.34,12.34,0,0,1,72.12,64.91Z"/><path class="cls-88" d="M72.12,64.91a12.51,12.51,0,0,1-8.49,4.52,12,12,0,0,1-3.14-.3l-5.13,4.22A17.39,17.39,0,0,0,80.22,52.91L74.76,57.4A12.34,12.34,0,0,1,72.12,64.91Z"/><path class="cls-87" d="M72.12,64.91a12.51,12.51,0,0,1-8.49,4.52,12,12,0,0,1-3.14-.3l-5.13,4.22A17.39,17.39,0,0,0,80.22,52.91L74.76,57.4A12.34,12.34,0,0,1,72.12,64.91Z"/><path class="cls-88" d="M72.12,64.91a12.51,12.51,0,0,1-8.49,4.52,12,12,0,0,1-3.14-.3l-5.13,4.22A17.39,17.39,0,0,0,80.22,52.91L74.76,57.4A12.34,12.34,0,0,1,72.12,64.91Z"/><path class="cls-89" d="M22.42,40.3A12.35,12.35,0,0,1,19.18,36l-4.4,3.61a17.47,17.47,0,0,0,3.41,4.19s0,0,0-.06Z"/><path class="cls-90" d="M22.42,40.3A12.35,12.35,0,0,1,19.18,36l-4.4,3.61a17.47,17.47,0,0,0,3.41,4.19s0,0,0-.06Z"/><path class="cls-89" d="M22.42,40.3A12.35,12.35,0,0,1,19.18,36l-4.4,3.61a17.47,17.47,0,0,0,3.41,4.19s0,0,0-.06Z"/><path class="cls-90" d="M22.42,40.3A12.35,12.35,0,0,1,19.18,36l-4.4,3.61a17.47,17.47,0,0,0,3.41,4.19s0,0,0-.06Z"/><path class="cls-91" d="M22.48,47.22s0,.05-.06.07L42.2,63.55l4.24-3.49L26.65,43.79Z"/><path class="cls-92" d="M22.48,47.22s0,.05-.06.07L42.2,63.55l4.24-3.49L26.65,43.79Z"/><path class="cls-91" d="M22.48,47.22s0,.05-.06.07L42.2,63.55l4.24-3.49L26.65,43.79Z"/><path class="cls-92" d="M22.48,47.22s0,.05-.06.07L42.2,63.55l4.24-3.49L26.65,43.79Z"/><path class="cls-93" d="M55,67l-4.34,3.57,1.15,1a17.9,17.9,0,0,0,3.53,1.88l5.13-4.22A12.17,12.17,0,0,1,55,67Z"/><path class="cls-94" d="M55,67l-4.34,3.57,1.15,1a17.9,17.9,0,0,0,3.53,1.88l5.13-4.22A12.17,12.17,0,0,1,55,67Z"/><path class="cls-93" d="M55,67l-4.34,3.57,1.15,1a17.9,17.9,0,0,0,3.53,1.88l5.13-4.22A12.17,12.17,0,0,1,55,67Z"/><path class="cls-94" d="M55,67l-4.34,3.57,1.15,1a17.9,17.9,0,0,0,3.53,1.88l5.13-4.22A12.17,12.17,0,0,1,55,67Z"/><path class="cls-95" d="M55,67l-4.34,3.57,1.15,1a17.9,17.9,0,0,0,3.53,1.88l5.13-4.22A12.17,12.17,0,0,1,55,67Z"/><path class="cls-96" d="M55,67l-4.34,3.57,1.15,1a17.9,17.9,0,0,0,3.53,1.88l5.13-4.22A12.17,12.17,0,0,1,55,67Z"/><path class="cls-95" d="M55,67l-4.34,3.57,1.15,1a17.9,17.9,0,0,0,3.53,1.88l5.13-4.22A12.17,12.17,0,0,1,55,67Z"/><path class="cls-96" d="M55,67l-4.34,3.57,1.15,1a17.9,17.9,0,0,0,3.53,1.88l5.13-4.22A12.17,12.17,0,0,1,55,67Z"/><path class="cls-97" d="M74.92,55.7a12.22,12.22,0,0,1-.16,1.7l5.46-4.49A17.21,17.21,0,0,0,78.09,48L73.7,51.6A12.75,12.75,0,0,1,74.92,55.7Z"/><path class="cls-98" d="M74.92,55.7a12.22,12.22,0,0,1-.16,1.7l5.46-4.49A17.21,17.21,0,0,0,78.09,48L73.7,51.6A12.75,12.75,0,0,1,74.92,55.7Z"/><path class="cls-97" d="M74.92,55.7a12.22,12.22,0,0,1-.16,1.7l5.46-4.49A17.21,17.21,0,0,0,78.09,48L73.7,51.6A12.75,12.75,0,0,1,74.92,55.7Z"/><path class="cls-99" d="M37.85,20.64l4.35-3.57L41,16.12a17.13,17.13,0,0,0-3.53-1.88l-5.12,4.21A12.2,12.2,0,0,1,37.85,20.64Z"/><path class="cls-100" d="M37.85,20.64l4.35-3.57L41,16.12a17.13,17.13,0,0,0-3.53-1.88l-5.12,4.21A12.2,12.2,0,0,1,37.85,20.64Z"/><path class="cls-99" d="M37.85,20.64l4.35-3.57L41,16.12a17.13,17.13,0,0,0-3.53-1.88l-5.12,4.21A12.2,12.2,0,0,1,37.85,20.64Z"/><path class="cls-100" d="M37.85,20.64l4.35-3.57L41,16.12a17.13,17.13,0,0,0-3.53-1.88l-5.12,4.21A12.2,12.2,0,0,1,37.85,20.64Z"/><path class="cls-101" d="M37.85,20.64l4.35-3.57L41,16.12a17.13,17.13,0,0,0-3.53-1.88l-5.12,4.21A12.2,12.2,0,0,1,37.85,20.64Z"/><path class="cls-102" d="M37.85,20.64l4.35-3.57L41,16.12a17.13,17.13,0,0,0-3.53-1.88l-5.12,4.21A12.2,12.2,0,0,1,37.85,20.64Z"/><path class="cls-101" d="M37.85,20.64l4.35-3.57L41,16.12a17.13,17.13,0,0,0-3.53-1.88l-5.12,4.21A12.2,12.2,0,0,1,37.85,20.64Z"/><path class="cls-103" d="M42.25,10.34l-4.74,3.9-5.12,4.21L18.12,30.18a12.24,12.24,0,0,0-.17,1.7A12.58,12.58,0,0,0,19.18,36L37.85,20.64l4.35-3.57,4.24-3.49-2.87-2.35C43.15,10.88,42.68,10.66,42.25,10.34Z"/><path class="cls-104" d="M78.94,47.28l-.85.7L73.7,51.6,55,67a12.17,12.17,0,0,0,5.47,2.18l4-3.32L74.76,57.4l5.46-4.49,2.25-1.85a28.34,28.34,0,0,0,2.68-2.69,22.72,22.72,0,0,0-2.79-4.58A23,23,0,0,1,78.94,47.28Z"/><path class="cls-105" d="M92.75,26.35a28,28,0,0,0-1-5.41,28.46,28.46,0,0,0-45.26-14A1.53,1.53,0,0,0,46.6,7l4,3.31A23.23,23.23,0,0,1,85.07,39.41a28.21,28.21,0,0,1,3.55,4.39A28.47,28.47,0,0,0,92.75,26.35Z"/><path class="cls-106" d="M46.28,80.55l-4-3.31A23.29,23.29,0,0,1,13.93,40.3l.85-.7a17.37,17.37,0,0,1-2.13-4.93L10.4,36.52a28.27,28.27,0,0,0-2.6,2.89A28.8,28.8,0,0,0,4.25,43.8a28.86,28.86,0,0,0-3.07,6.6A28.48,28.48,0,0,0,46.44,80.65Z"/><path class="cls-107" d="M18,31.88a12.24,12.24,0,0,1,.17-1.7l-5.47,4.49a17.37,17.37,0,0,0,2.13,4.93L19.18,36A12.58,12.58,0,0,1,18,31.88Z"/><path class="cls-108" d="M18,31.88a12.24,12.24,0,0,1,.17-1.7l-5.47,4.49a17.37,17.37,0,0,0,2.13,4.93L19.18,36A12.58,12.58,0,0,1,18,31.88Z"/><path class="cls-107" d="M18,31.88a12.24,12.24,0,0,1,.17-1.7l-5.47,4.49a17.37,17.37,0,0,0,2.13,4.93L19.18,36A12.58,12.58,0,0,1,18,31.88Z"/><path class="cls-108" d="M18,31.88a12.24,12.24,0,0,1,.17-1.7l-5.47,4.49a17.37,17.37,0,0,0,2.13,4.93L19.18,36A12.58,12.58,0,0,1,18,31.88Z"/><path class="cls-109" d="M18,31.88a12.24,12.24,0,0,1,.17-1.7l-5.47,4.49a17.37,17.37,0,0,0,2.13,4.93L19.18,36A12.58,12.58,0,0,1,18,31.88Z"/><path class="cls-110" d="M18,31.88a12.24,12.24,0,0,1,.17-1.7l-5.47,4.49a17.37,17.37,0,0,0,2.13,4.93L19.18,36A12.58,12.58,0,0,1,18,31.88Z"/><path class="cls-109" d="M18,31.88a12.24,12.24,0,0,1,.17-1.7l-5.47,4.49a17.37,17.37,0,0,0,2.13,4.93L19.18,36A12.58,12.58,0,0,1,18,31.88Z"/><path class="cls-110" d="M18,31.88a12.24,12.24,0,0,1,.17-1.7l-5.47,4.49a17.37,17.37,0,0,0,2.13,4.93L19.18,36A12.58,12.58,0,0,1,18,31.88Z"/><path class="cls-111" d="M70.45,40.3s0,.05-.06.07l-4.16,3.42,4.16,3.43s0,.05.06.07l4.18-3.44.05-.06s0,0-.05-.06Z"/><path class="cls-112" d="M70.45,40.3s0,.05-.06.07l-4.16,3.42,4.16,3.43s0,.05.06.07l4.18-3.44.05-.06s0,0-.05-.06Z"/><path class="cls-111" d="M70.45,40.3s0,.05-.06.07l-4.16,3.42,4.16,3.43s0,.05.06.07l4.18-3.44.05-.06s0,0-.05-.06Z"/><path class="cls-112" d="M70.45,40.3s0,.05-.06.07l-4.16,3.42,4.16,3.43s0,.05.06.07l4.18-3.44.05-.06s0,0-.05-.06Z"/><polygon class="cls-113" points="46.44 27.52 50.68 24.04 46.44 20.55 42.2 24.04 46.44 27.52"/><polygon class="cls-114" points="46.44 27.52 50.68 24.04 46.44 20.55 42.2 24.04 46.44 27.52"/><polygon class="cls-113" points="46.44 27.52 50.68 24.04 46.44 20.55 42.2 24.04 46.44 27.52"/><polygon class="cls-114" points="46.44 27.52 50.68 24.04 46.44 20.55 42.2 24.04 46.44 27.52"/><polygon class="cls-115" points="46.44 27.52 50.68 24.04 46.44 20.55 42.2 24.04 46.44 27.52"/><polygon class="cls-116" points="46.44 27.52 50.68 24.04 46.44 20.55 42.2 24.04 46.44 27.52"/><polygon class="cls-115" points="46.44 27.52 50.68 24.04 46.44 20.55 42.2 24.04 46.44 27.52"/><polygon class="cls-116" points="46.44 27.52 50.68 24.04 46.44 20.55 42.2 24.04 46.44 27.52"/><polygon class="cls-117" points="46.44 60.06 42.2 63.55 46.44 67.03 50.68 63.55 46.44 60.06"/><polygon class="cls-118" points="46.44 60.06 42.2 63.55 46.44 67.03 50.68 63.55 46.44 60.06"/><polygon class="cls-117" points="46.44 60.06 42.2 63.55 46.44 67.03 50.68 63.55 46.44 60.06"/><polygon class="cls-118" points="46.44 60.06 42.2 63.55 46.44 67.03 50.68 63.55 46.44 60.06"/><polygon class="cls-119" points="46.44 60.06 42.2 63.55 46.44 67.03 50.68 63.55 46.44 60.06"/><polygon class="cls-120" points="46.44 60.06 42.2 63.55 46.44 67.03 50.68 63.55 46.44 60.06"/><polygon class="cls-119" points="46.44 60.06 42.2 63.55 46.44 67.03 50.68 63.55 46.44 60.06"/><polygon class="cls-120" points="46.44 60.06 42.2 63.55 46.44 67.03 50.68 63.55 46.44 60.06"/><path class="cls-121" d="M22.42,47.29s0,0,.06-.07l4.17-3.43-4.17-3.42s0-.06-.06-.07l-4.18,3.43s0,.05,0,.06l0,.06Z"/><path class="cls-122" d="M22.42,47.29s0,0,.06-.07l4.17-3.43-4.17-3.42s0-.06-.06-.07l-4.18,3.43s0,.05,0,.06l0,.06Z"/><path class="cls-121" d="M22.42,47.29s0,0,.06-.07l4.17-3.43-4.17-3.42s0-.06-.06-.07l-4.18,3.43s0,.05,0,.06l0,.06Z"/><path class="cls-122" d="M22.42,47.29s0,0,.06-.07l4.17-3.43-4.17-3.42s0-.06-.06-.07l-4.18,3.43s0,.05,0,.06l0,.06Z"/><path class="cls-123" d="M22.42,47.29s0,0,.06-.07l4.17-3.43-4.17-3.42s0-.06-.06-.07l-4.18,3.43s0,.05,0,.06l0,.06Z"/><path class="cls-124" d="M22.42,47.29s0,0,.06-.07l4.17-3.43-4.17-3.42s0-.06-.06-.07l-4.18,3.43s0,.05,0,.06l0,.06Z"/><path class="cls-123" d="M22.42,47.29s0,0,.06-.07l4.17-3.43-4.17-3.42s0-.06-.06-.07l-4.18,3.43s0,.05,0,.06l0,.06Z"/><path class="cls-124" d="M22.42,47.29s0,0,.06-.07l4.17-3.43-4.17-3.42s0-.06-.06-.07l-4.18,3.43s0,.05,0,.06l0,.06Z"/><path class="cls-37" d="M72.12,64.91a12.34,12.34,0,0,0,2.64-7.51h0A12.34,12.34,0,0,1,72.12,64.91Z"/><path class="cls-125" d="M72.12,64.91a12.34,12.34,0,0,0,2.64-7.51h0A12.34,12.34,0,0,1,72.12,64.91Z"/><path class="cls-37" d="M74.76,57.4a12.22,12.22,0,0,0,.16-1.7,14,14,0,0,1-.16,1.7Z"/><path class="cls-126" d="M74.76,57.4a12.22,12.22,0,0,0,.16-1.7,14,14,0,0,1-.16,1.7Z"/></g></g></svg>