<svg width="11" height="11" viewBox="0 0 11 11" fill="none" xmlns="http://www.w3.org/2000/svg">
<path d="M3.9403 10.1082C4.3097 10.1082 4.62313 9.9291 4.83582 9.58209L9.95149 1.53358C10.0858 1.3209 10.2313 1.06343 10.2313 0.817163C10.2313 0.324626 9.78358 0 9.31343 0C9.02239 0 8.74254 0.16791 8.54104 0.503731L3.88433 7.94776L1.6791 5.10448C1.42164 4.74627 1.16418 4.64552 0.86194 4.64552C0.369402 4.64552 0 5.03731 0 5.54104C0 5.77612 0.0895519 6.02239 0.246268 6.23507L2.97761 9.58209C3.26866 9.95149 3.5597 10.1082 3.9403 10.1082Z" fill="#6C46A1"/>
</svg>
