<svg width="60" height="60" viewBox="0 0 60 60" fill="none" xmlns="http://www.w3.org/2000/svg">
<path d="M10 8H48C50.8 8 53 10.2 53 13V43C53 45.8 50.8 48 48 48H10C7.2 48 5 45.8 5 43V13C5 10.2 7.2 8 10 8Z" fill="#13E2A1"/>
<path d="M21.22 37.0399C20.4067 37.0399 20 36.8933 20 36.5999C20 36.5466 20.0267 36.4266 20.08 36.2399L24.48 23.3799C24.5867 23.0999 24.9667 22.9599 25.62 22.9599H26.66C27.3267 22.9599 27.7067 23.0999 27.8 23.3799L32.2 36.2399C32.24 36.3733 32.26 36.4933 32.26 36.5999C32.26 36.8933 31.9267 37.0399 31.26 37.0399H30.38C29.7267 37.0399 29.3533 36.8999 29.26 36.6199L28.46 34.1799H23.74L22.94 36.6199C22.8467 36.8999 22.54 37.0399 22.02 37.0399H21.22ZM27.6 31.5399L26.46 27.9799C26.3667 27.7133 26.2667 27.2866 26.16 26.6999H26.08C26.0667 26.7799 26.0333 26.9599 25.98 27.2399C25.94 27.5066 25.8733 27.7533 25.78 27.9799L24.6 31.5399H27.6Z" fill="#3B168A"/>
<path d="M34.7456 37.0599C33.9456 37.0599 33.5456 36.8399 33.5456 36.3999V23.5999C33.5456 23.1599 33.9456 22.9399 34.7456 22.9399H35.4456C36.2456 22.9399 36.6456 23.1599 36.6456 23.5999V36.3999C36.6456 36.8399 36.2456 37.0599 35.4456 37.0599H34.7456Z" fill="#3B168A"/>
<path d="M11.5 16C12.3 16 13 15.3 13 14.5C13 13.7 12.3 13 11.5 13C10.7 13 10 13.7 10 14.5C10 15.3 10.7 16 11.5 16Z" fill="white"/>
<path d="M16.5 16C17.3 16 18 15.3 18 14.5C18 13.7 17.3 13 16.5 13C15.7 13 15 13.7 15 14.5C15 15.3 15.7 16 16.5 16Z" fill="white"/>
<path d="M21.5 16C22.3 16 23 15.3 23 14.5C23 13.7 22.3 13 21.5 13C20.7 13 20 13.7 20 14.5C20 15.3 20.7 16 21.5 16Z" fill="white"/>
</svg>
