<svg width="60" height="60" viewBox="0 0 60 60" fill="none" xmlns="http://www.w3.org/2000/svg">
<g clip-path="url(#clip0)">
<path d="M10 10H48C50.8 10 53 12.2 53 15V45C53 47.8 50.8 50 48 50H10C7.2 50 5 47.8 5 45V15C5 12.2 7.2 10 10 10Z" fill="#3B168A"/>
<path d="M11.5 18C12.3 18 13 17.3 13 16.5C13 15.7 12.3 15 11.5 15C10.7 15 10 15.7 10 16.5C10 17.3 10.7 18 11.5 18Z" fill="white"/>
<path d="M16.5 18C17.3 18 18 17.3 18 16.5C18 15.7 17.3 15 16.5 15C15.7 15 15 15.7 15 16.5C15 17.3 15.7 18 16.5 18Z" fill="white"/>
<path d="M21.5 18C22.3 18 23 17.3 23 16.5C23 15.7 22.3 15 21.5 15C20.7 15 20 15.7 20 16.5C20 17.3 20.7 18 21.5 18Z" fill="white"/>
<path d="M55.1002 31.1C56.2002 32.1 56.2002 33.8 55.1002 34.9C51.7002 38 44.0002 44 35.0002 44C26.0002 44 18.3002 38 14.9002 34.9C13.8002 33.9 13.8002 32.2 14.9002 31.1C18.3002 28 26.0002 22 35.0002 22C44.0002 22 51.7002 28 55.1002 31.1Z" fill="white"/>
<path d="M35 40C38.866 40 42 36.866 42 33C42 29.134 38.866 26 35 26C31.134 26 28 29.134 28 33C28 36.866 31.134 40 35 40Z" fill="#00E099"/>
<path d="M40 31C41.1 31 42 30.1 42 29C42 27.9 41.1 27 40 27C38.9 27 38 27.9 38 29C38 30.1 38.9 31 40 31Z" fill="white"/>
</g>
<defs>
<clipPath id="clip0">
<rect width="50.9" height="40" fill="white" transform="translate(5 10)"/>
</clipPath>
</defs>
</svg>
