<svg width="60" height="60" viewBox="0 0 60 60" fill="none" xmlns="http://www.w3.org/2000/svg">
<path d="M9 8H47C49.8 8 52 10.2 52 13V43C52 45.8 49.8 48 47 48H9C6.2 48 4 45.8 4 43V13C4 10.2 6.2 8 9 8Z" fill="#3B168A"/>
<path d="M10.5 16C11.3 16 12 15.3 12 14.5C12 13.7 11.3 13 10.5 13C9.7 13 9 13.7 9 14.5C9 15.3 9.7 16 10.5 16Z" fill="white"/>
<path d="M15.5 16C16.3 16 17 15.3 17 14.5C17 13.7 16.3 13 15.5 13C14.7 13 14 13.7 14 14.5C14 15.3 14.7 16 15.5 16Z" fill="white"/>
<path d="M20.5 16C21.3 16 22 15.3 22 14.5C22 13.7 21.3 13 20.5 13C19.7 13 19 13.7 19 14.5C19 15.3 19.7 16 20.5 16Z" fill="white"/>
<path d="M44.1025 29.618V29.6383C42.9634 29.7429 42.0683 30.6896 42.0683 31.8556V37.1444C42.0683 38.3104 42.9634 39.2571 44.1025 39.3617V39.382C44.2104 39.382 44.3139 39.4249 44.3902 39.5012C44.4665 39.5775 44.5094 39.681 44.5094 39.7889V40.6025C44.5086 40.7016 44.4714 40.7968 44.4048 40.8701C44.3382 40.9435 44.247 40.9897 44.1485 41C43.5867 40.978 43.0366 40.8333 42.5366 40.576C42.0367 40.3188 41.5992 39.9553 41.2547 39.511C40.9102 39.9553 40.4726 40.3188 39.9727 40.576C39.4728 40.8333 38.9226 40.978 38.3609 41C38.2624 40.9897 38.1711 40.9435 38.1046 40.8701C38.038 40.7968 38.0008 40.7016 38 40.6025V39.7889C38 39.681 38.0429 39.5775 38.1192 39.5012C38.1955 39.4249 38.2989 39.382 38.4068 39.382V39.3617C39.546 39.2571 40.441 38.3104 40.441 37.1444V31.8556C40.441 30.6896 39.546 29.7429 38.4068 29.6383V29.618C38.2989 29.618 38.1955 29.5751 38.1192 29.4988C38.0429 29.4225 38 29.319 38 29.2111V28.3975C38 28.1892 38.1587 28.0232 38.3609 28C38.9226 28.022 39.4728 28.1667 39.9727 28.424C40.4726 28.6812 40.9102 29.0447 41.2547 29.489C41.5992 29.0447 42.0367 28.6812 42.5366 28.424C43.0366 28.1667 43.5867 28.022 44.1485 28C44.247 28.0103 44.3382 28.0565 44.4048 28.1298C44.4714 28.2032 44.5086 28.2984 44.5094 28.3975V29.2111C44.5094 29.319 44.4665 29.4225 44.3902 29.4988C44.3139 29.5751 44.2104 29.618 44.1025 29.618Z" fill="white"/>
<rect x="9" y="21" width="12" height="4" rx="2" fill="#00E099"/>
<rect x="23" y="21" width="17" height="4" rx="2" fill="#00E099"/>
<rect x="9" y="28" width="25" height="4" rx="2" fill="#00E099"/>
<rect x="9" y="35" width="13" height="4" rx="2" fill="#00E099"/>
<rect x="24" y="35" width="10" height="4" rx="2" fill="#00E099"/>
</svg>
