<svg width="60" height="60" viewBox="0 0 60 60" fill="none" xmlns="http://www.w3.org/2000/svg">
<path d="M52.0002 28.7C52.9002 29.7 52.9002 31.2 52.0002 32.2C48.6002 36 39.8002 44.5 29.5002 44.5C19.2002 44.5 10.4002 36 7.0002 32.3C6.1002 31.3 6.1002 29.8 7.0002 28.8C10.4002 25 19.2002 16.5 29.5002 16.5C39.8002 16.5 48.6002 25 52.0002 28.7Z" fill="white"/>
<path d="M29.5 39.5C34.4706 39.5 38.5 35.4706 38.5 30.5C38.5 25.5294 34.4706 21.5 29.5 21.5C24.5294 21.5 20.5 25.5294 20.5 30.5C20.5 35.4706 24.5294 39.5 29.5 39.5Z" fill="#00E099"/>
<path d="M36 27.5C37.4 27.5 38.5 26.4 38.5 25C38.5 23.6 37.4 22.5 36 22.5C34.6 22.5 33.5 23.6 33.5 25C33.5 26.4 34.6 27.5 36 27.5Z" fill="white"/>
<path fill-rule="evenodd" clip-rule="evenodd" d="M6 12.5C6 11.6716 6.67157 11 7.5 11H12.5C13.3284 11 14 11.6716 14 12.5C14 13.3284 13.3284 14 12.5 14H9V17.5C9 18.3284 8.32843 19 7.5 19C6.67157 19 6 18.3284 6 17.5V12.5Z" fill="#3B168A"/>
<path fill-rule="evenodd" clip-rule="evenodd" d="M7.5 42C8.32843 42 9 42.6716 9 43.5V47H12.5C13.3284 47 14 47.6716 14 48.5C14 49.3284 13.3284 50 12.5 50H7.5C6.67157 50 6 49.3284 6 48.5V43.5C6 42.6716 6.67157 42 7.5 42Z" fill="#3B168A"/>
<path fill-rule="evenodd" clip-rule="evenodd" d="M45 12.5C45 11.6716 45.6716 11 46.5 11H51.5C52.3284 11 53 11.6716 53 12.5V17.5C53 18.3284 52.3284 19 51.5 19C50.6716 19 50 18.3284 50 17.5V14H46.5C45.6716 14 45 13.3284 45 12.5Z" fill="#3B168A"/>
<path fill-rule="evenodd" clip-rule="evenodd" d="M51.5 42C52.3284 42 53 42.6716 53 43.5V48.5C53 49.3284 52.3284 50 51.5 50H46.5C45.6716 50 45 49.3284 45 48.5C45 47.6716 45.6716 47 46.5 47H50V43.5C50 42.6716 50.6716 42 51.5 42Z" fill="#3B168A"/>
</svg>
