<svg width="72" height="72" viewBox="0 0 72 72" fill="none" xmlns="http://www.w3.org/2000/svg">
<path d="M36 72C29.6269 72.0072 23.3674 70.314 17.867 67.095C18.5253 66.6358 19.063 66.0244 19.4343 65.3129C19.8057 64.6013 19.9997 63.8106 20 63.008C20 61.6819 19.4732 60.4101 18.5355 59.4725C17.5979 58.5348 16.3261 58.008 15 58.008C13.9867 58.0096 12.9978 58.3198 12.1651 58.8971C11.3323 59.4744 10.695 60.2916 10.338 61.24C3.948 54.742 0 45.834 0 36C0 16.118 16.118 0 36 0C41.28 0 46.29 1.146 50.808 3.19C49.712 4.105 49 5.466 49 7.008C49 8.33408 49.5268 9.60585 50.4645 10.5435C51.4021 11.4812 52.6739 12.008 54 12.008C56.356 12.008 58.318 10.373 58.847 8.18C66.877 14.783 72 24.793 72 36C72 55.882 55.882 72 36 72Z" fill="#13E2A1"/>
<path d="M27.307 39.492C27.247 40.595 26.29 41.428 25.2 41.378L0.225 39.99C0.0771577 38.6651 0.00204502 37.3331 0 36L0 35.972L25.42 37.384C25.6823 37.3984 25.9393 37.4644 26.1761 37.5782C26.4129 37.6919 26.625 37.8512 26.8003 38.047C26.9755 38.2428 27.1104 38.4711 27.1974 38.7191C27.2843 38.967 27.3216 39.2296 27.307 39.492ZM24.73 14.53L53.714 5.47198C53.9961 5.38349 54.2943 5.35876 54.587 5.39957C54.8798 5.44039 55.1599 5.54572 55.407 5.70798C55.907 6.03598 56.234 6.57098 56.299 7.16598L59.956 41.008L71.91 33.608C71.963 34.4 72 35.196 72 36C72 36.777 71.966 37.545 71.917 38.31L60.043 45.66L54.507 66.88C52.982 67.7953 51.3909 68.5959 49.747 69.275L55.827 45.97L33.205 41.93L42.455 71.412C41.132 71.652 39.787 71.819 38.419 71.91L29.7 44.126L17.005 64.44C16.8147 64.744 16.5457 64.9909 16.2266 65.1546C15.9074 65.3183 15.55 65.3927 15.192 65.37C14.604 64.9531 14.0284 64.5189 13.466 64.068C13.256 63.506 13.271 62.868 13.614 62.321L28.097 39.148L21.12 19.958L1.03 27.444C1.436 25.778 1.96 24.16 2.588 22.594L20.493 15.924L22.348 2.68798C23.73 2.12118 25.1461 1.64125 26.588 1.25098L24.728 14.531L24.73 14.53ZM31.796 37.614L56.036 41.944L52.584 10.016L24.906 18.666L31.796 37.614Z" fill="#3B168A"/>
<path d="M63.9998 44.0082C63.9998 45.5995 63.3677 47.1257 62.2425 48.2509C61.1173 49.3761 59.5911 50.0082 57.9998 50.0082C56.4085 50.0082 54.8824 49.3761 53.7572 48.2509C52.632 47.1257 51.9998 45.5995 51.9998 44.0082C51.9998 42.4169 52.632 40.8908 53.7572 39.7656C54.8824 38.6404 56.4085 38.0082 57.9998 38.0082C59.5911 38.0082 61.1173 38.6404 62.2425 39.7656C63.3677 40.8908 63.9998 42.4169 63.9998 44.0082ZM53.9998 13.0082C52.4085 13.0082 50.8824 12.3761 49.7572 11.2509C48.632 10.1257 47.9998 8.59953 47.9998 7.00823C47.9998 5.33823 48.6848 3.82823 49.7878 2.74023C53.3933 4.2404 56.7308 6.31683 59.6698 8.88823C58.8768 11.2752 56.6528 13.0082 53.9998 13.0082ZM29.9998 45.0082C28.4085 45.0082 26.8824 44.3761 25.7572 43.2509C24.632 42.1257 23.9998 40.5995 23.9998 39.0082C23.9998 37.4169 24.632 35.8908 25.7572 34.7656C26.8824 33.6404 28.4085 33.0082 29.9998 33.0082C31.5911 33.0082 33.1173 33.6404 34.2425 34.7656C35.3677 35.8908 35.9998 37.4169 35.9998 39.0082C35.9998 40.5995 35.3677 42.1257 34.2425 43.2509C33.1173 44.3761 31.5911 45.0082 29.9998 45.0082ZM15.9998 17.0082C15.9998 16.2203 16.155 15.4401 16.4566 14.7121C16.7581 13.9842 17.2001 13.3227 17.7572 12.7656C18.3144 12.2084 18.9758 11.7665 19.7037 11.465C20.4317 11.1634 21.2119 11.0082 21.9998 11.0082C22.7878 11.0082 23.568 11.1634 24.2959 11.465C25.0239 11.7665 25.6853 12.2084 26.2425 12.7656C26.7996 13.3227 27.2416 13.9842 27.5431 14.7121C27.8447 15.4401 27.9998 16.2203 27.9998 17.0082C27.9998 18.5995 27.3677 20.1257 26.2425 21.2509C25.1173 22.3761 23.5911 23.0082 21.9998 23.0082C20.4085 23.0082 18.8824 22.3761 17.7572 21.2509C16.632 20.1257 15.9998 18.5995 15.9998 17.0082ZM9.58984 60.4552C10.5498 58.4232 12.6028 57.0082 14.9998 57.0082C16.5911 57.0082 18.1173 57.6404 19.2425 58.7656C20.3677 59.8908 20.9998 61.4169 20.9998 63.0082C20.9998 64.8782 20.1278 66.5252 18.7878 67.6252C15.3536 65.7495 12.247 63.3279 9.58984 60.4552Z" fill="white"/>
<path d="M15.0001 60.0078C15.7957 60.0078 16.5588 60.3238 17.1214 60.8865C17.684 61.4491 18.0001 62.2121 18.0001 63.0078C17.9986 63.6468 17.7924 64.2685 17.4118 64.7817C17.0311 65.295 16.4961 65.6728 15.8851 65.8598C14.529 64.9416 13.2368 63.9326 12.0171 62.8398C12.0575 62.0757 12.3893 61.3562 12.9443 60.8294C13.4992 60.3025 14.2349 60.0085 15.0001 60.0078ZM30.0001 42.0078C29.2044 42.0078 28.4414 41.6917 27.8788 41.1291C27.3162 40.5665 27.0001 39.8034 27.0001 39.0078C27.0001 38.2121 27.3162 37.4491 27.8788 36.8865C28.4414 36.3238 29.2044 36.0078 30.0001 36.0078C30.7957 36.0078 31.5588 36.3238 32.1214 36.8865C32.684 37.4491 33.0001 38.2121 33.0001 39.0078C33.0001 39.8034 32.684 40.5665 32.1214 41.1291C31.5588 41.6917 30.7957 42.0078 30.0001 42.0078ZM25.0001 17.0078C25.0001 17.4017 24.9225 17.7918 24.7717 18.1558C24.621 18.5198 24.4 18.8505 24.1214 19.1291C23.8428 19.4077 23.5121 19.6286 23.1481 19.7794C22.7842 19.9302 22.3941 20.0078 22.0001 20.0078C21.6061 20.0078 21.216 19.9302 20.852 19.7794C20.4881 19.6286 20.1573 19.4077 19.8788 19.1291C19.6002 18.8505 19.3792 18.5198 19.2285 18.1558C19.0777 17.7918 19.0001 17.4017 19.0001 17.0078C19.0001 16.2121 19.3162 15.4491 19.8788 14.8865C20.4414 14.3238 21.2044 14.0078 22.0001 14.0078C22.7957 14.0078 23.5588 14.3238 24.1214 14.8865C24.684 15.4491 25.0001 16.2121 25.0001 17.0078ZM58.0001 47.0078C57.2044 47.0078 56.4414 46.6917 55.8788 46.1291C55.3162 45.5665 55.0001 44.8034 55.0001 44.0078C55.0001 43.2121 55.3162 42.4491 55.8788 41.8865C56.4414 41.3238 57.2044 41.0078 58.0001 41.0078C58.7957 41.0078 59.5588 41.3238 60.1214 41.8865C60.684 42.4491 61.0001 43.2121 61.0001 44.0078C61.0001 44.8034 60.684 45.5665 60.1214 46.1291C59.5588 46.6917 58.7957 47.0078 58.0001 47.0078ZM57.0001 7.00777C57.0001 7.80342 56.684 8.56648 56.1214 9.12909C55.5588 9.6917 54.7957 10.0078 54.0001 10.0078C53.2044 10.0078 52.4414 9.6917 51.8788 9.12909C51.3162 8.56648 51.0001 7.80342 51.0001 7.00777C51.0001 5.73577 51.7951 4.65477 52.9131 4.21777C54.321 4.97092 55.6773 5.81678 56.9731 6.74977C56.9811 6.83577 57.0001 6.91977 57.0001 7.00777Z" fill="#13E2A1"/>
</svg>
