<svg width="60" height="60" viewBox="0 0 60 60" fill="none" xmlns="http://www.w3.org/2000/svg">
<g clip-path="url(#clip0)">
<path d="M9 8H47C49.8 8 52 10.2 52 13V43C52 45.8 49.8 48 47 48H9C6.2 48 4 45.8 4 43V13C4 10.2 6.2 8 9 8Z" fill="#3B168A"/>
<path d="M10.5 16C11.3 16 12 15.3 12 14.5C12 13.7 11.3 13 10.5 13C9.7 13 9 13.7 9 14.5C9 15.3 9.7 16 10.5 16Z" fill="white"/>
<path d="M15.5 16C16.3 16 17 15.3 17 14.5C17 13.7 16.3 13 15.5 13C14.7 13 14 13.7 14 14.5C14 15.3 14.7 16 15.5 16Z" fill="white"/>
<path d="M20.5 16C21.3 16 22 15.3 22 14.5C22 13.7 21.3 13 20.5 13C19.7 13 19 13.7 19 14.5C19 15.3 19.7 16 20.5 16Z" fill="white"/>
<path fill-rule="evenodd" clip-rule="evenodd" d="M29.6001 19.1002L24.6001 36.8002C25.0001 37.3002 25.3001 37.7002 25.8001 38.2002C26.3001 38.7002 26.9001 39.2002 27.5001 39.6002L33.5001 18.2002C32.2001 18.3002 30.9001 18.6002 29.6001 19.1002ZM35.3001 18.3002L29.1001 40.5002C29.6001 40.8002 30.2001 41.0002 30.7001 41.1002L37.0001 18.6002C36.4001 18.4002 35.9001 18.3002 35.3001 18.3002Z" fill="white"/>
<path fill-rule="evenodd" clip-rule="evenodd" d="M43.9001 38.5001C48.3001 33.4001 48.1001 25.7001 43.2001 20.8001C38.1001 15.7001 29.9001 15.7001 24.8001 20.8001C19.7001 25.9001 19.7001 34.1001 24.8001 39.2001C29.6001 44.0001 37.3001 44.3001 42.5001 39.9001L44.1001 41.5001C43.6001 42.6001 43.8001 44.0001 44.7001 44.9001L51.8001 52.0001C53.0001 53.2001 54.9001 53.2001 56.0001 52.0001C57.2001 50.8001 57.2001 48.9001 56.0001 47.8001L48.9001 40.7001C48.0001 39.8001 46.6001 39.6001 45.5001 40.1001L43.9001 38.5001ZM41.1001 37.1001C45.0001 33.2001 45.0001 26.9001 41.1001 23.0001C37.2001 19.1001 30.9001 19.1001 27.0001 23.0001C23.1001 26.9001 23.1001 33.2001 27.0001 37.1001C30.8001 41.0001 37.2001 41.0001 41.1001 37.1001Z" fill="#13E2A1"/>
</g>
<defs>
<clipPath id="clip0">
<rect width="52.8" height="44.8" fill="white" transform="translate(4 8)"/>
</clipPath>
</defs>
</svg>
