<svg width="72" height="72" viewBox="0 0 72 72" fill="none" xmlns="http://www.w3.org/2000/svg">
<circle cx="36" cy="36" r="36" fill="#13E2A1"/>
<path d="M46.0241 47.2161C43.7682 47.2161 41.6108 46.8162 39.5939 46.1137C39.8168 44.9317 39.9452 43.7159 39.9452 42.4691C39.9452 33.8977 34.443 26.63 26.7876 23.962C28.4965 14.8787 36.4518 8 46.0241 8C56.842 8 65.6119 16.7807 65.6119 27.6094C65.6119 38.438 56.842 47.2161 46.0241 47.2161ZM46.0268 14.7503C45.0508 14.7511 44.0845 14.9441 43.183 15.3184C42.2816 15.6927 41.4628 16.2409 40.7733 16.9318C40.0838 17.6226 39.5372 18.4425 39.1647 19.3447C38.7922 20.2469 38.6012 21.2136 38.6024 22.1896C38.6024 26.2963 41.9256 29.6289 46.0268 29.6289C47.9978 29.6275 49.8876 28.8433 51.2804 27.4487C52.6732 26.0541 53.4551 24.1633 53.454 22.1923C53.455 21.2158 53.2637 20.2487 52.8908 19.3462C52.5179 18.4437 51.9709 17.6235 51.2809 16.9325C50.5909 16.2415 49.7715 15.6932 48.8695 15.319C47.9675 14.9448 47.0006 14.7521 46.0241 14.7517L46.0268 14.7503Z" fill="#3B168A"/>
<path d="M46.0242 47.216C43.7682 47.216 41.6109 46.8107 39.594 46.1056C39.8169 44.9263 39.9452 43.7145 39.9452 42.469C39.9452 39.2134 39.1401 36.1509 37.7393 33.4492C38.7393 32.7503 39.8301 32.1913 40.9814 31.7876C42.5303 32.6047 44.2554 33.0313 46.0066 33.0304C47.7616 33.0329 49.4904 32.6062 51.0427 31.7876C55.2507 33.2493 58.6847 36.6332 59.3642 41.9354C55.8654 45.2018 51.1859 47.2147 46.0242 47.2147V47.216Z" fill="white"/>
<path d="M20.3575 61.4271C15.189 61.4271 10.5015 59.4088 7 56.1343C7.6849 50.8443 11.1121 47.4657 15.3133 46.0027C16.8631 46.8202 18.5891 47.2469 20.3413 47.2455C22.096 47.2469 23.8244 46.8193 25.376 46C29.584 47.463 33.018 50.847 33.6975 56.1492C30.1987 59.4156 25.5192 61.4284 20.3575 61.4284V61.4271Z" fill="white"/>
<path d="M27.7871 37.0494C27.7882 39.0206 27.0064 40.9116 25.6137 42.3067C24.221 43.7017 22.3312 44.4865 20.36 44.4887C18.3895 44.4865 16.5004 43.702 15.1082 42.3074C13.716 40.9129 12.9345 39.0226 12.9356 37.0521C12.9343 36.076 13.1254 35.1093 13.4979 34.2072C13.8704 33.305 14.417 32.4851 15.1064 31.7942C15.7959 31.1033 16.6148 30.5551 17.5162 30.1808C18.4176 29.8065 19.3839 29.6135 20.36 29.6128C22.331 29.6142 24.2207 30.3985 25.6135 31.7931C27.0064 33.1877 27.7882 35.0784 27.7871 37.0494Z" fill="#3B168A"/>
</svg>
