
<svg width="72" height="72" viewBox="0 0 72 72" fill="none" xmlns="http://www.w3.org/2000/svg">
<path d="M36 0C55.882 0 72 16.118 72 36C72 55.882 55.882 72 36 72C16.118 72 0 55.882 0 36C0 16.118 16.118 0 36 0V0Z" fill="#13E2A1"/>
<path d="M55.1701 33.9769C55.9169 34.823 55.9169 36.0923 55.1701 36.9384C52.3488 40.1538 45.0467 47.3461 36.4998 47.3461C27.953 47.3461 20.6509 40.1538 17.8296 37.023C17.0828 36.1769 17.0828 34.9077 17.8296 34.0615C20.6509 30.8461 27.953 23.6538 36.4998 23.6538C45.0467 23.6538 52.3488 30.8461 55.1701 33.9769Z" fill="white"/>
<path d="M36.5003 43.1153C40.6248 43.1153 43.9684 39.7058 43.9684 35.4999C43.9684 31.294 40.6248 27.8845 36.5003 27.8845C32.3758 27.8845 29.0322 31.294 29.0322 35.4999C29.0322 39.7058 32.3758 43.1153 36.5003 43.1153Z" fill="#00E099"/>
<path d="M41.8938 32.9615C43.0555 32.9615 43.9683 32.0307 43.9683 30.8461C43.9683 29.6615 43.0555 28.7307 41.8938 28.7307C40.7321 28.7307 39.8193 29.6615 39.8193 30.8461C39.8193 32.0307 40.7321 32.9615 41.8938 32.9615Z" fill="white"/>
<path fill-rule="evenodd" clip-rule="evenodd" d="M17 20.2692C17 19.5683 17.5573 19 18.2447 19H22.3936C23.081 19 23.6383 19.5683 23.6383 20.2692C23.6383 20.9702 23.081 21.5385 22.3936 21.5385H19.4894V24.5C19.4894 25.201 18.9321 25.7692 18.2447 25.7692C17.5573 25.7692 17 25.201 17 24.5V20.2692Z" fill="#3B168A"/>
<path fill-rule="evenodd" clip-rule="evenodd" d="M18.2447 45.2307C18.9321 45.2307 19.4894 45.799 19.4894 46.4999V49.4615H22.3936C23.081 49.4615 23.6383 50.0297 23.6383 50.7307C23.6383 51.4317 23.081 51.9999 22.3936 51.9999H18.2447C17.5573 51.9999 17 51.4317 17 50.7307V46.4999C17 45.799 17.5573 45.2307 18.2447 45.2307Z" fill="#3B168A"/>
<path fill-rule="evenodd" clip-rule="evenodd" d="M49.3613 20.2692C49.3613 19.5683 49.9186 19 50.606 19H54.7549C55.4424 19 55.9996 19.5683 55.9996 20.2692V24.5C55.9996 25.201 55.4424 25.7692 54.7549 25.7692C54.0675 25.7692 53.5103 25.201 53.5103 24.5V21.5385H50.606C49.9186 21.5385 49.3613 20.9702 49.3613 20.2692Z" fill="#3B168A"/>
<path fill-rule="evenodd" clip-rule="evenodd" d="M54.7549 45.2307C55.4424 45.2307 55.9996 45.799 55.9996 46.4999V50.7307C55.9996 51.4317 55.4424 51.9999 54.7549 51.9999H50.606C49.9186 51.9999 49.3613 51.4317 49.3613 50.7307C49.3613 50.0297 49.9186 49.4615 50.606 49.4615H53.5103V46.4999C53.5103 45.799 54.0675 45.2307 54.7549 45.2307Z" fill="#3B168A"/>
</svg>
