<svg width="72" height="72" viewBox="0 0 72 72" fill="none" xmlns="http://www.w3.org/2000/svg">
<path d="M36 0C55.882 0 72 16.118 72 36C72 55.882 55.882 72 36 72C16.118 72 0 55.882 0 36C0 16.118 16.118 0 36 0Z" fill="#13E2A1"/>
<path d="M61.8978 11.0078H46.4998C46.102 11.0078 45.7204 10.8498 45.4391 10.5685C45.1578 10.2872 44.9998 9.90564 44.9998 9.50781V7.50781C44.9998 7.10999 45.1578 6.72846 45.4391 6.44715C45.7204 6.16585 46.102 6.00781 46.4998 6.00781H55.9098C58.0803 7.45362 60.088 9.13005 61.8978 11.0078ZM40.9998 7.50781V9.50781C40.9998 9.90564 40.8418 10.2872 40.5605 10.5685C40.2791 10.8498 39.8976 11.0078 39.4998 11.0078H10.1018C11.9122 9.12993 13.9206 7.45351 16.0918 6.00781H39.4998C39.8976 6.00781 40.2791 6.16585 40.5605 6.44715C40.8418 6.72846 40.9998 7.10999 40.9998 7.50781ZM25.9998 18.5078V20.5078C25.9998 20.9056 25.8418 21.2872 25.5604 21.5685C25.2791 21.8498 24.8976 22.0078 24.4998 22.0078H2.81979C3.55421 20.2756 4.42355 18.6038 5.41979 17.0078H24.4998C24.8976 17.0078 25.2791 17.1658 25.5604 17.4472C25.8418 17.7285 25.9998 18.11 25.9998 18.5078ZM16.4998 39.0078C16.8976 39.0078 17.2791 39.1658 17.5604 39.4472C17.8418 39.7285 17.9998 40.11 17.9998 40.5078V42.5078C17.9998 42.9056 17.8418 43.2872 17.5604 43.5685C17.2791 43.8498 16.8976 44.0078 16.4998 44.0078H0.904789C0.530949 42.3613 0.273645 40.6905 0.134789 39.0078H16.4998ZM21.9998 42.5078V40.5078C21.9998 40.11 22.1578 39.7285 22.4391 39.4472C22.7204 39.1658 23.102 39.0078 23.4998 39.0078H38.4998C38.8976 39.0078 39.2791 39.1658 39.5605 39.4472C39.8418 39.7285 39.9998 40.11 39.9998 40.5078V42.5078C39.9998 42.9056 39.8418 43.2872 39.5605 43.5685C39.2791 43.8498 38.8976 44.0078 38.4998 44.0078H23.4998C23.102 44.0078 22.7204 43.8498 22.4391 43.5685C22.1578 43.2872 21.9998 42.9056 21.9998 42.5078ZM31.4998 17.0078H49.4998C49.8976 17.0078 50.2791 17.1658 50.5605 17.4472C50.8418 17.7285 50.9998 18.11 50.9998 18.5078V20.5078C50.9998 20.9056 50.8418 21.2872 50.5605 21.5685C50.2791 21.8498 49.8976 22.0078 49.4998 22.0078H31.4998C31.102 22.0078 30.7204 21.8498 30.4391 21.5685C30.1578 21.2872 29.9998 20.9056 29.9998 20.5078V18.5078C29.9998 18.11 30.1578 17.7285 30.4391 17.4472C30.7204 17.1658 31.102 17.0078 31.4998 17.0078ZM34.9998 29.5078V31.5078C34.9998 31.9056 34.8418 32.2872 34.5605 32.5685C34.2791 32.8498 33.8976 33.0078 33.4998 33.0078H0.133789C0.273789 31.3048 0.531789 29.6358 0.900789 28.0078H33.5008C33.8986 28.0078 34.2801 28.1658 34.5615 28.4472C34.8428 28.7285 35.0008 29.11 35.0008 29.5078H34.9998ZM2.82679 50.0078H28.4998C28.8976 50.0078 29.2791 50.1658 29.5604 50.4472C29.8418 50.7285 29.9998 51.11 29.9998 51.5078V53.5078C29.9998 53.9056 29.8418 54.2872 29.5604 54.5685C29.2791 54.8498 28.8976 55.0078 28.4998 55.0078H5.42979C4.4326 53.4118 3.56226 51.74 2.82679 50.0078Z" fill="#3B168A"/>
<path d="M56 32.0078V32.0578C53.2 32.3148 51 34.6418 51 37.5078V50.5078C51 53.3738 53.2 55.7008 56 55.9578V56.0078C56.2652 56.0078 56.5196 56.1131 56.7071 56.3007C56.8946 56.4882 57 56.7425 57 57.0078V59.0078C56.9981 59.2512 56.9066 59.4854 56.743 59.6656C56.5794 59.8458 56.3551 59.9594 56.113 59.9848C54.7321 59.9306 53.3799 59.5749 52.1511 58.9427C50.9223 58.3104 49.8468 57.4169 49 56.3248C48.1532 57.4169 47.0777 58.3104 45.8489 58.9427C44.6201 59.5749 43.2679 59.9306 41.887 59.9848C41.6449 59.9594 41.4206 59.8458 41.257 59.6656C41.0934 59.4854 41.0019 59.2512 41 59.0078V57.0078C41 56.7425 41.1054 56.4882 41.2929 56.3007C41.4804 56.1131 41.7348 56.0078 42 56.0078V55.9578C44.8 55.7008 47 53.3738 47 50.5078V37.5078C47 34.6418 44.8 32.3148 42 32.0578V32.0078C41.7348 32.0078 41.4804 31.9024 41.2929 31.7149C41.1054 31.5273 41 31.273 41 31.0078V29.0078C41 28.4958 41.39 28.0878 41.887 28.0308C43.2679 28.0849 44.6201 28.4406 45.8489 29.0728C47.0777 29.7051 48.1532 30.5987 49 31.6908C49.8468 30.5987 50.9223 29.7051 52.1511 29.0728C53.3799 28.4406 54.7321 28.0849 56.113 28.0308C56.3551 28.0561 56.5794 28.1697 56.743 28.3499C56.9066 28.5302 56.9981 28.7643 57 29.0078V31.0078C57 31.273 56.8946 31.5273 56.7071 31.7149C56.5196 31.9024 56.2652 32.0078 56 32.0078Z" fill="white"/>
</svg>
