<svg width="12" height="15" viewBox="0 0 12 15" fill="none" xmlns="http://www.w3.org/2000/svg">
<path d="M3.29348 11C3.09548 10.1513 2.20215 9.45732 1.83549 8.99998C1.20761 8.21551 0.814117 7.26963 0.700328 6.27129C0.586539 5.27296 0.757085 4.26279 1.19232 3.35715C1.62756 2.4515 2.30977 1.68723 3.16039 1.15237C4.011 0.617512 4.99541 0.333824 6.00021 0.333984C7.005 0.334145 7.98932 0.61815 8.83976 1.15328C9.6902 1.68841 10.3722 2.4529 10.8071 3.35869C11.2421 4.26447 11.4123 5.27469 11.2982 6.27299C11.1841 7.27129 10.7903 8.21705 10.1622 9.00132C9.79548 9.45798 8.90348 10.152 8.70548 11H3.29282H3.29348ZM8.66615 12.3333V13C8.66615 13.3536 8.52568 13.6927 8.27563 13.9428C8.02558 14.1928 7.68644 14.3333 7.33282 14.3333H4.66615C4.31253 14.3333 3.97339 14.1928 3.72334 13.9428C3.47329 13.6927 3.33282 13.3536 3.33282 13V12.3333H8.66615ZM6.66615 5.66998V2.99998L3.66615 7.00332H5.33282V9.66998L8.33282 5.66998H6.66615Z" fill="#FFC043"/>
</svg>
